# This file uses centimeters as units for non-parametric coordinates.

mtllib buildings.mtl
g default
v 0.004724 -0.137787 0.000312
v 0.007683 -0.142794 0.003656
v 0.010938 -0.124265 0.016219
v 0.015133 -0.131522 0.020648
v 0.007601 -0.140711 0.001693
v 0.015069 -0.126273 0.021134
v 0.008028 -0.204606 0.043223
v 0.019437 -0.219882 0.028661
v 0.008028 -0.210906 0.015913
v 0.001331 -0.200867 0.026736
v 0.008028 -0.233054 0.016337
v 0.019437 -0.249829 0.028929
v 0.008028 -0.233287 0.043395
v -0.001321 -0.112413 0.000719
v -0.001321 -0.067365 0.002646
v 0.006450 -0.118422 -0.014036
v 0.007584 -0.070110 -0.013229
v 0.007584 -0.077078 -0.013350
v -0.001321 -0.074329 0.002348
v -0.001321 -0.065305 -0.021438
v -0.010293 -0.063537 -0.006989
v -0.001321 -0.071872 -0.021461
v 0.017861 -0.245603 0.031512
v 0.005869 -0.228943 0.047823
v 0.009032 -0.233337 -0.008162
v -0.002373 -0.217492 0.013139
v 0.018198 -0.246070 -0.011388
v 0.030629 -0.263341 0.032649
v 0.035351 -0.269901 -0.022999
v 0.040467 -0.277008 -0.009889
v 0.024238 -0.254461 -0.018900
v 0.037070 -0.272289 0.021813
v 0.040684 -0.277310 0.012776
v 0.028472 -0.260344 -0.022324
v 0.025952 -0.256843 0.045559
v 0.032864 -0.266445 0.040299
v 0.005895 -0.114307 0.013059
v 0.005895 -0.109268 0.020596
v -0.005845 -0.095125 -0.007053
v -0.002758 -0.091160 0.000988
v 0.011107 -0.118732 0.006844
v 0.016839 -0.122290 -0.004947
v 0.005454 -0.113470 -0.012945
v 0.003527 -0.112212 -0.000962
v 0.005881 -0.151757 -0.011450
v 0.016436 -0.156080 -0.006356
v 0.011071 -0.151052 0.006719
v -0.009921 -0.017140 0.018864
v -0.009921 -0.013705 0.016166
v -0.009921 -0.022060 0.013079
v -0.009921 -0.016254 0.009348
v 0.029552 -0.264590 0.001933
v 0.029298 -0.235483 0.001286
v 0.025151 -0.256170 -0.009247
v 0.025064 -0.221901 -0.009468
v 0.027884 -0.232408 -0.002306
v 0.027795 -0.261227 -0.002532
v 0.026265 -0.225781 -0.006418
v 0.026015 -0.257823 -0.007051
v 0.026863 -0.229051 -0.004899
v 0.027074 -0.259849 -0.004361
v -0.010005 -0.062310 0.036208
v -0.010005 -0.059506 0.034572
v -0.010005 -0.066282 0.032117
v -0.010005 -0.061652 0.030222
v 0.009951 -0.186455 0.036058
v 0.010478 -0.181603 0.036217
v 0.012994 -0.189860 0.026845
v 0.013305 -0.184553 0.026319
v 0.015460 -0.193006 0.031672
v 0.016021 -0.186124 0.031402
v 0.013924 -0.180147 0.033453
v 0.012736 -0.178777 0.029982
v -0.010083 -0.017338 0.038854
v -0.010083 -0.013634 0.035518
v -0.010083 -0.022729 0.032380
v -0.010083 -0.017146 0.029664
v -0.004794 -0.051038 -0.002195
v -0.004794 -0.046677 0.001845
v -0.004794 -0.048117 -0.021897
v -0.004794 -0.041120 -0.023634
v -0.004794 -0.031380 -0.021639
v -0.004794 -0.039401 0.005072
v -0.004794 -0.023255 -0.008062
v -0.004794 -0.036198 0.010493
v -0.004794 -0.021810 0.002820
v -0.004794 -0.033392 0.013168
v -0.004794 -0.018576 0.008140
v -0.004794 -0.032598 0.014735
v -0.004794 -0.021226 0.012789
v -0.004794 -0.032480 0.016429
v -0.004794 -0.020804 0.015509
v -0.004794 -0.032574 0.018774
v -0.004794 -0.022493 0.023951
v -0.004794 -0.035060 0.020979
v -0.004794 -0.025119 0.032440
v -0.004794 -0.037686 0.020697
v -0.004794 -0.032931 0.043131
v -0.004794 -0.040996 0.017224
v -0.004794 -0.047819 0.037365
v -0.004794 -0.042986 0.012677
v -0.004794 -0.054205 0.022083
v -0.004794 -0.050779 0.014092
v 0.019882 -0.154815 0.028870
v 0.032070 -0.164673 0.006864
v 0.012350 -0.149061 -0.021370
v 0.012350 -0.146322 0.009354
v 0.012350 -0.190388 -0.023507
v 0.032070 -0.207935 0.006467
v 0.016157 -0.194037 0.035651
v 0.020069 -0.209263 0.007965
v 0.016605 -0.207341 0.002853
v 0.024790 -0.217454 -0.009558
v 0.024790 -0.257789 -0.008449
v 0.016605 -0.244517 0.004060
v 0.021352 -0.251255 0.014422
v 0.024790 -0.228999 -0.009240
v 0.016605 -0.218885 0.003228
v 0.020069 -0.220813 0.008033
v 0.024790 -0.234270 -0.009095
v 0.016605 -0.224155 0.003399
v 0.021352 -0.236829 0.014389
v -0.016045 -0.094012 0.035514
v -0.016045 -0.076900 0.046228
v -0.016045 -0.086204 0.018135
v -0.016045 -0.068578 0.028335
v 0.034273 -0.209581 0.040386
v 0.019601 -0.195915 0.051100
v 0.019356 -0.195686 0.017835
v 0.009899 -0.186878 0.034736
v 0.024077 -0.200084 0.007705
v 0.042612 -0.217348 0.022047
v 0.023325 -0.199383 0.002683
v 0.045224 -0.219781 0.005315
v 0.021085 -0.197297 -0.004459
v 0.036465 -0.211622 -0.009515
v 0.013806 -0.190517 -0.021086
v 0.019145 -0.195490 -0.034044
v 0.025964 -0.201842 -0.024386
v 0.018848 -0.195214 -0.009568
v 0.040059 -0.214970 -0.018035
v 0.033186 -0.208568 -0.030751
v -0.007232 -0.022117 -0.004413
v -0.007232 -0.018300 -0.004628
v -0.007232 -0.023902 -0.010810
v -0.007232 -0.019570 -0.010875
v -0.009064 -0.025764 -0.018213
v -0.009064 -0.019924 -0.014049
v -0.009064 -0.022227 -0.026086
v -0.009064 -0.016154 -0.022155
v -0.009064 -0.016763 0.005673
v -0.009064 -0.012663 0.003129
v -0.009064 -0.022642 -0.001150
v -0.009064 -0.016813 -0.003109
v 0.006534 -0.100062 0.036717
v 0.020251 -0.105023 0.025950
v 0.020251 -0.163055 0.024703
v 0.006534 -0.155579 0.035207
v 0.006534 -0.097553 0.010902
v -0.001595 -0.095027 0.021248
v 0.006534 -0.151635 0.008542
v 0.006534 -0.122642 0.011460
v 0.020251 -0.132028 0.025338
v 0.006534 -0.124556 0.036012
v 0.006534 -0.111284 0.011693
v 0.020251 -0.120425 0.025601
v 0.006534 -0.112955 0.036346
vt 0.428216 0.526995
vt 0.361747 0.625727
vt 0.363409 0.589833
vt 0.421504 0.512756
vt 0.432939 0.550914
vt 0.378552 0.645288
vt 0.675843 0.291466
vt 0.726226 0.206655
vt 0.766821 0.236565
vt 0.713777 0.318015
vt 0.725310 0.001877
vt 0.765370 0.073183
vt 0.675256 0.079738
vt 0.455182 0.274847
vt 0.505629 0.233761
vt 0.503283 0.502496
vt 0.449610 0.535271
vt 0.502867 0.550150
vt 0.448592 0.582888
vt 0.530934 0.605959
vt 0.474545 0.634796
vt 0.531013 0.561054
vt 0.812908 0.275414
vt 0.948552 0.378757
vt 0.875725 0.512257
vt 0.757140 0.415779
vt 0.809020 0.125967
vt 0.959585 0.271476
vt 0.985266 0.200781
vt 0.846070 0.050575
vt 0.876968 0.008275
vt 0.996974 0.151213
vt 0.954458 0.010818
vt 0.999282 0.070698
vt 0.764881 0.180712
vt 0.782865 0.099811
vt 0.928672 0.478922
vt 0.997434 0.610091
vt 0.969943 0.637199
vt 0.902903 0.513379
vt 0.594956 0.489406
vt 0.628333 0.455611
vt 0.665321 0.515924
vt 0.627737 0.538628
vt 0.633344 0.224551
vt 0.660006 0.254117
vt 0.595400 0.268402
vt 0.333695 0.259009
vt 0.353475 0.225367
vt 0.366232 0.265072
vt 0.342920 0.282499
vt 0.663381 0.048427
vt 0.671447 0.059734
vt 0.672261 0.294063
vt 0.661054 0.267532
vt 0.630370 0.002154
vt 0.646774 0.025148
vt 0.645943 0.222212
vt 0.632745 0.201189
vt 0.653495 0.034569
vt 0.655472 0.245171
vt 0.324762 0.129865
vt 0.338752 0.102700
vt 0.345228 0.134358
vt 0.330355 0.149037
vt 0.386907 0.290977
vt 0.404283 0.266965
vt 0.404465 0.314217
vt 0.397204 0.343926
vt 0.385758 0.324288
vt 0.419450 0.288028
vt 0.420754 0.324467
vt 0.409738 0.353333
vt 0.265349 0.257656
vt 0.287484 0.220792
vt 0.296771 0.258967
vt 0.276756 0.282984
vt 0.405699 0.027212
vt 0.473060 0.047188
vt 0.478997 0.095037
vt 0.391885 0.057039
vt 0.472178 0.161637
vt 0.380853 0.106789
vt 0.425757 0.217195
vt 0.362318 0.128694
vt 0.388550 0.227076
vt 0.353173 0.147876
vt 0.370363 0.249188
vt 0.347814 0.153311
vt 0.354467 0.231068
vt 0.342020 0.154113
vt 0.345167 0.233954
vt 0.334003 0.153471
vt 0.316303 0.222408
vt 0.326466 0.136474
vt 0.287278 0.204449
vt 0.327428 0.118514
vt 0.250728 0.151031
vt 0.339304 0.095885
vt 0.270441 0.049227
vt 0.354849 0.082276
vt 0.322690 0.005563
vt 0.350011 0.028990
vt 0.812955 0.883915
vt 0.888197 0.816507
vt 0.984727 0.937700
vt 0.879681 0.989428
vt 0.889553 0.535108
vt 0.992034 0.685980
vt 0.789092 0.660962
vt 0.711567 0.471601
vt 0.709306 0.332368
vt 0.754547 0.283965
vt 0.756758 0.444791
vt 0.675017 0.297031
vt 0.675132 0.395674
vt 0.713433 0.586575
vt 0.712152 0.507642
vt 0.757254 0.480837
vt 0.758339 0.559782
vt 0.699488 0.494353
vt 0.699720 0.573326
vt 0.796366 0.455025
vt 0.855786 0.508417
vt 0.820909 0.628943
vt 0.759735 0.572036
vt 0.534454 0.629994
vt 0.611558 0.769394
vt 0.553772 0.857768
vt 0.497823 0.767100
vt 0.597155 0.552071
vt 0.646192 0.725273
vt 0.654364 0.527660
vt 0.663362 0.732304
vt 0.705067 0.609511
vt 0.687782 0.753236
vt 0.755912 0.707638
vt 0.705250 0.774138
vt 0.788933 0.771364
vt 0.744627 0.821255
vt 0.734198 0.575929
vt 0.777674 0.640158
vt 0.413282 0.224975
vt 0.435152 0.212773
vt 0.435374 0.242394
vt 0.414015 0.251078
vt 0.460462 0.200037
vt 0.487383 0.224226
vt 0.473942 0.265756
vt 0.446227 0.239974
vt 0.378799 0.261589
vt 0.402126 0.221390
vt 0.408824 0.261247
vt 0.387496 0.289627
vt 0.513541 0.087160
vt 0.549455 0.036036
vt 0.547285 0.227558
vt 0.510787 0.278652
vt 0.508379 0.446146
vt 0.545192 0.412225
vt 0.596641 0.463299
vt 0.561267 0.498055
vt 0.604711 0.114129
vt 0.594734 0.291743
vt 0.546385 0.306903
vt 0.593937 0.369411
vt 0.509647 0.357985
vn 0.845707 0.199318 -0.495027
vn 0.847198 0.196539 -0.493587
vn 0.936368 -0.051243 -0.347261
vn 0.936368 -0.051243 -0.347261
vn 0.749960 0.345849 -0.563869
vn 0.749960 0.345849 -0.563869
vn 0.847198 0.196539 -0.493587
vn 0.845707 0.199318 -0.495027
vn 0.879139 0.396066 0.265041
vn 0.985340 0.167868 0.030407
vn 0.806377 0.414565 -0.421771
vn 0.723220 0.672945 -0.155236
vn 0.985340 0.167868 0.030407
vn 0.996791 -0.001575 0.080029
vn 0.738541 -0.008955 -0.674149
vn 0.806377 0.414565 -0.421771
vn 0.788630 0.004611 0.614851
vn 0.996791 -0.001575 0.080029
vn 0.985340 0.167868 0.030407
vn 0.879139 0.396066 0.265041
vn 0.873534 -0.026640 0.486034
vn 0.873533 -0.026640 0.486035
vn 0.904012 -0.024097 0.426828
vn 0.872835 -0.024412 0.487404
vn 0.872835 -0.024412 0.487404
vn 0.904012 -0.024097 0.426828
vn 0.768481 0.638664 0.039315
vn 0.658167 0.701149 0.274239
vn 0.658167 0.701149 0.274239
vn 0.768481 0.638664 0.039315
vn 0.517414 0.846585 -0.124806
vn 0.368248 0.926346 0.079219
vn 0.768481 0.638664 0.039315
vn 0.904012 -0.024097 0.426828
vn 0.677941 0.007854 -0.735075
vn 0.517414 0.846585 -0.124806
vn 0.811606 0.584206 0.000000
vn 0.811606 0.584206 0.000000
vn 0.811606 0.584206 0.000000
vn 0.811606 0.584206 0.000000
vn 0.811605 0.584206 0.000000
vn 0.811605 0.584206 0.000000
vn 0.811605 0.584206 0.000000
vn 0.811605 0.584206 0.000000
vn 0.811605 0.584206 0.000001
vn 0.811605 0.584206 0.000001
vn 0.811605 0.584206 0.000001
vn 0.811605 0.584206 0.000001
vn 0.811606 0.584206 0.000001
vn 0.811606 0.584206 0.000001
vn 0.811605 0.584206 0.000001
vn 0.811605 0.584206 0.000001
vn 0.811605 0.584206 0.000001
vn 0.811605 0.584206 0.000001
vn 0.811606 0.584205 0.000001
vn 0.811606 0.584205 0.000001
vn 0.811605 0.584206 -0.000001
vn 0.811605 0.584207 -0.000001
vn 0.811605 0.584207 -0.000001
vn 0.811605 0.584207 -0.000001
vn 0.934740 0.194250 -0.297536
vn 0.934740 0.194250 -0.297535
vn 0.934740 0.194250 -0.297536
vn 0.934740 0.194250 -0.297536
vn 0.908597 0.256693 0.329485
vn 0.939655 0.137602 -0.313232
vn 0.661176 0.321423 -0.677889
vn 0.610077 0.791516 0.036178
vn 0.939655 0.137602 -0.313232
vn 0.944153 -0.010671 -0.329334
vn 0.512067 -0.000848 -0.858945
vn 0.661176 0.321423 -0.677889
vn 0.911064 -0.015596 0.411970
vn 0.944153 -0.010671 -0.329334
vn 0.939655 0.137602 -0.313232
vn 0.908597 0.256693 0.329485
vn 1.000000 0.000000 0.000000
vn 1.000000 0.000000 0.000000
vn 1.000000 0.000000 0.000000
vn 1.000000 0.000000 0.000000
vn 0.930497 0.000000 -0.366299
vn 0.930496 0.000000 -0.366302
vn 0.930496 0.000000 -0.366302
vn 0.930496 0.000000 -0.366301
vn 0.930496 0.000000 -0.366301
vn 0.930497 0.000000 -0.366300
vn 0.930498 0.000000 -0.366297
vn 0.930496 0.000000 -0.366301
vn 0.930498 0.000000 -0.366296
vn 0.930497 0.000000 -0.366299
vn 0.930496 0.000000 -0.366301
vn 0.930498 0.000000 -0.366297
vn 0.930497 0.000000 -0.366300
vn 0.930498 0.000000 -0.366296
vn 0.930498 0.000000 -0.366297
vn 0.930498 0.000000 -0.366297
vn 1.000000 0.000000 0.000000
vn 1.000000 0.000000 0.000000
vn 1.000000 0.000000 0.000000
vn 1.000000 0.000000 0.000000
vn 0.616324 -0.047095 0.786084
vn 0.927219 -0.085279 0.364682
vn 0.926410 0.015339 0.376205
vn 0.616324 -0.047095 0.786084
vn 0.616324 -0.047095 0.786084
vn 0.927219 -0.085279 0.364682
vn 0.863101 -0.094123 -0.496183
vn 0.905718 0.135914 -0.401501
vn 0.926410 0.015339 0.376205
vn 0.926410 0.015339 0.376205
vn 0.905718 0.135914 -0.401501
vn 0.893363 0.343513 -0.289656
vn 0.893363 0.343513 -0.289656
vn 1.000000 0.000000 0.000000
vn 1.000000 0.000000 0.000000
vn 1.000000 0.000000 0.000000
vn 1.000000 0.000000 0.000000
vn 1.000000 0.000000 0.000000
vn 1.000000 0.000000 0.000000
vn 1.000000 0.000000 0.000000
vn 1.000000 0.000000 0.000000
vn 1.000000 -0.000000 0.000000
vn 1.000000 -0.000000 0.000000
vn 1.000000 -0.000000 0.000000
vn 1.000000 -0.000000 0.000000
vn 1.000000 0.000000 0.000000
vn 1.000000 0.000000 0.000000
vn 1.000000 0.000000 0.000000
vn 1.000000 0.000000 0.000000
vn 1.000000 0.000000 0.000000
vn 1.000000 0.000000 0.000000
vn 1.000000 0.000000 0.000000
vn 1.000000 0.000000 0.000000
vn 1.000000 0.000000 0.000000
vn 1.000000 0.000000 0.000000
vn 1.000000 0.000000 0.000000
vn 1.000000 0.000000 0.000000
vn 1.000000 0.000000 0.000000
vn 1.000000 0.000000 0.000000
vn 1.000000 0.000000 0.000000
vn 1.000000 0.000000 0.000000
vn 1.000000 -0.000000 0.000000
vn 1.000000 -0.000000 0.000000
vn 1.000000 -0.000000 0.000000
vn 1.000000 -0.000000 0.000000
vn 1.000000 -0.000000 0.000000
vn 1.000000 -0.000000 0.000000
vn 1.000000 -0.000000 0.000000
vn 1.000000 -0.000001 0.000000
vn 1.000000 -0.000001 0.000000
vn 1.000000 -0.000000 0.000000
vn 1.000000 -0.000000 0.000000
vn 1.000000 0.000000 0.000000
vn 1.000000 0.000000 0.000000
vn 1.000000 -0.000000 0.000000
vn 1.000000 0.000000 0.000000
vn 1.000000 0.000000 0.000000
vn 1.000000 -0.000000 0.000000
vn 1.000000 -0.000000 0.000000
vn 1.000000 -0.000000 0.000000
vn 1.000000 -0.000000 0.000000
vn 1.000000 0.000000 0.000000
vn 1.000000 0.000000 0.000000
vn 1.000000 0.000000 0.000000
vn 1.000000 0.000000 0.000000
vn 0.898874 0.250082 0.359839
vn 0.981138 0.170581 -0.090945
vn 0.862676 0.198215 -0.465297
vn 0.679922 0.733064 -0.017984
vn 0.981138 0.170581 -0.090945
vn 0.996134 0.009197 -0.087358
vn 0.832110 0.016606 -0.554361
vn 0.862676 0.198215 -0.465297
vn 0.876164 -0.002270 0.482008
vn 0.996134 0.009197 -0.087358
vn 0.981138 0.170581 -0.090945
vn 0.898874 0.250082 0.359839
vn 0.986076 -0.018429 0.165274
vn 0.975607 0.008182 0.219371
vn 0.843336 0.016010 0.537148
vn 0.843211 0.016025 0.537344
vn 0.910938 -0.008236 -0.412462
vn 0.975607 0.008182 0.219371
vn 0.986076 -0.018429 0.165274
vn 0.907468 -0.014170 -0.419883
vn 0.979389 0.008467 0.201805
vn 0.977811 -0.007530 0.209354
vn 0.841681 0.016183 0.539733
vn 0.841282 0.016202 0.540354
vn 0.829346 -0.078841 -0.553145
vn 0.977811 -0.007530 0.209354
vn 0.979389 0.008467 0.201805
vn 0.817792 -0.011031 -0.575408
vn 0.977811 -0.007530 0.209354
vn 0.986076 -0.018429 0.165274
vn 0.843211 0.016025 0.537344
vn 0.841681 0.016183 0.539733
vn 0.907468 -0.014170 -0.419883
vn 0.986076 -0.018429 0.165274
vn 0.977811 -0.007530 0.209354
vn 0.829346 -0.078841 -0.553145
vn 1.000000 0.000000 0.000000
vn 1.000000 0.000000 0.000000
vn 1.000000 0.000000 0.000000
vn 1.000000 0.000000 0.000000
vn 0.681567 0.731755 0.000000
vn 0.681567 0.731756 0.000000
vn 0.681567 0.731756 0.000000
vn 0.681567 0.731756 0.000000
vn 0.681568 0.731755 0.000000
vn 0.681568 0.731755 0.000000
vn 0.681568 0.731755 0.000000
vn 0.681568 0.731755 0.000000
vn 0.681567 0.731756 -0.000001
vn 0.681567 0.731756 -0.000001
vn 0.681567 0.731756 -0.000001
vn 0.681567 0.731756 -0.000001
vn 0.681569 0.731753 -0.000001
vn 0.681569 0.731754 -0.000001
vn 0.681569 0.731754 -0.000001
vn 0.681569 0.731754 -0.000001
vn 0.681567 0.731756 0.000000
vn 0.681567 0.731756 0.000000
vn 0.681568 0.731755 0.000000
vn 0.681567 0.731756 0.000000
vn 0.681567 0.731756 0.000000
vn 0.681568 0.731755 0.000000
vn 0.681568 0.731755 0.000000
vn 0.681568 0.731755 0.000000
vn 0.681568 0.731755 0.000000
vn 0.681568 0.731755 0.000000
vn 0.681568 0.731755 0.000000
vn 0.681568 0.731755 0.000000
vn 1.000000 -0.000001 0.000000
vn 1.000000 -0.000001 0.000000
vn 1.000000 -0.000001 0.000000
vn 1.000000 -0.000001 0.000000
vn 1.000000 0.000000 0.000000
vn 1.000000 0.000000 0.000000
vn 1.000000 0.000000 0.000000
vn 1.000000 0.000000 0.000000
vn 1.000000 -0.000001 0.000000
vn 1.000000 -0.000001 0.000000
vn 1.000000 -0.000001 0.000000
vn 1.000000 -0.000001 0.000000
vn 0.604638 -0.018484 0.796286
vn 0.998841 0.017236 0.044936
vn 0.999802 0.014860 0.013246
vn 0.606106 -0.019240 0.795151
vn 0.597002 0.656807 0.460644
vn 0.911941 0.409805 0.020564
vn 0.683285 0.661055 -0.310046
vn 0.398566 0.912841 0.088699
vn 0.999802 0.014860 0.013246
vn 0.998841 0.017236 0.044936
vn 0.751137 0.039010 -0.658993
vn 0.738348 0.029983 -0.673754
vn 0.999937 -0.010769 -0.003255
vn 0.999802 0.014860 0.013246
vn 0.738348 0.029983 -0.673754
vn 0.720991 -0.002702 -0.692939
vn 0.606106 -0.019240 0.795151
vn 0.999802 0.014860 0.013246
vn 0.999937 -0.010769 -0.003255
vn 0.610329 -0.020218 0.791890
vn 0.911941 0.409805 0.020564
vn 0.999937 -0.010769 -0.003255
vn 0.720991 -0.002702 -0.692939
vn 0.683285 0.661055 -0.310046
vn 0.610329 -0.020218 0.791890
vn 0.999937 -0.010769 -0.003255
vn 0.911941 0.409805 0.020564
vn 0.597002 0.656807 0.460644
s off
g buildings:pCube35
usemtl initialShadingGroup
f 5/1/1 6/2/2 4/3/3 2/4/4
f 1/5/5 3/6/6 6/2/7 5/1/8
f 7/7/9 8/8/10 9/9/11 10/10/12
f 8/8/13 12/11/14 11/12/15 9/9/16
f 13/13/17 12/11/18 8/8/19 7/7/20
f 14/14/21 16/15/22 18/16/23 19/17/24
f 19/17/25 18/16/26 17/18/27 15/19/28
f 15/19/29 17/18/30 20/20/31 21/21/32
f 17/18/33 18/16/34 22/22/35 20/20/36
f 23/23/37 25/24/38 26/25/39 24/26/40
f 25/24/41 23/23/42 28/27/43 27/28/44
f 31/29/45 32/30/46 33/31/47 34/32/48
f 27/28/49 28/27/50 32/30/51 31/29/52
f 34/32/53 33/31/54 30/33/55 29/34/56
f 28/27/57 23/23/58 35/35/59 36/36/60
f 37/37/61 39/38/62 40/39/63 38/40/64
f 41/41/65 42/42/66 43/43/67 44/44/68
f 42/42/69 46/45/70 45/46/71 43/43/72
f 47/47/73 46/45/74 42/42/75 41/41/76
f 48/48/77 50/49/78 51/50/79 49/51/80
f 59/52/81 54/53/82 55/54/83 58/55/84
f 52/56/85 57/57/86 56/58/87 53/59/88
f 61/60/89 59/52/90 58/55/91 60/61/92
f 57/57/93 61/60/94 60/61/95 56/58/96
f 62/62/97 64/63/98 65/64/99 63/65/100
f 66/66/101 70/67/102 71/68/103 72/69/104 67/70/105
f 70/67/106 68/71/107 69/72/108 71/68/109
f 71/68/110 69/72/111 73/73/112 72/69/113
f 74/74/114 76/75/115 77/76/116 75/77/117
f 78/78/118 80/79/119 81/80/120 79/81/121
f 79/81/122 81/80/123 82/82/124 83/83/125
f 83/83/126 82/82/127 84/84/128 85/85/129
f 85/85/130 84/84/131 86/86/132 87/87/133
f 87/87/134 86/86/135 88/88/136 89/89/137
f 89/89/138 88/88/139 90/90/140 91/91/141
f 91/91/142 90/90/143 92/92/144 93/93/145
f 93/93/146 92/92/147 94/94/148 95/95/149
f 95/95/150 94/94/151 96/96/152 97/97/153
f 97/97/154 96/96/155 98/98/156 99/99/157
f 99/99/158 98/98/159 100/100/160 101/101/161
f 101/101/162 100/100/163 102/102/164 103/103/165
f 104/104/166 105/105/167 106/106/168 107/107/169
f 105/105/170 109/108/171 108/109/172 106/106/173
f 110/110/174 109/108/175 105/105/176 104/104/177
f 121/111/178 115/112/179 114/113/180 120/114/181
f 116/115/182 115/112/183 121/111/184 122/116/185
f 112/117/186 118/118/187 117/119/188 113/120/189
f 119/121/190 118/118/191 112/117/192 111/122/193
f 118/118/194 121/111/195 120/114/196 117/119/197
f 122/116/198 121/111/199 118/118/200 119/121/201
f 123/123/202 125/124/203 126/125/204 124/126/205
f 127/127/206 129/128/207 130/129/208 128/130/209
f 129/128/210 127/127/211 132/131/212 131/132/213
f 131/132/214 132/131/215 134/133/216 133/134/217
f 133/134/218 134/133/219 136/135/220 135/136/221
f 135/136/222 136/135/223 139/137/224 140/138/225
f 140/138/226 139/137/227 138/139/228 137/140/229
f 139/137/230 136/135/231 141/141/232 142/142/233
f 143/143/234 145/144/235 146/145/236 144/146/237
f 147/147/238 149/148/239 150/149/240 148/150/241
f 151/151/242 153/152/243 154/153/244 152/154/245
f 158/155/246 157/156/247 163/157/248 164/158/249
f 155/159/250 156/160/251 159/161/252 160/162/253
f 163/157/254 157/156/255 161/163/256 162/164/257
f 166/165/258 163/157/259 162/164/260 165/166/261
f 164/158/262 163/157/263 166/165/264 167/167/265
f 156/160/266 166/165/267 165/166/268 159/161/269
f 167/167/270 166/165/271 156/160/272 155/159/273
