# This file uses centimeters as units for non-parametric coordinates.

mtllib buildings.mtl
g default
v -0.057917 -0.578000 2.007060
v -0.038609 -0.610662 2.028880
v -0.017375 -0.489776 2.110841
v 0.009998 -0.537121 2.139738
v -0.039147 -0.597076 2.016071
v 0.009579 -0.502874 2.142909
v -0.036357 -1.013941 2.287024
v 0.038077 -1.113605 2.192016
v -0.036357 -1.055043 2.108847
v -0.080054 -0.989545 2.179458
v -0.036357 -1.199543 2.111614
v 0.038077 -1.308985 2.193764
v -0.036357 -1.201065 2.288144
v -0.097356 -0.412453 2.009714
v -0.097356 -0.118547 2.022290
v -0.046652 -0.451654 1.913449
v -0.039255 -0.136454 1.918720
v -0.039255 -0.181920 1.917926
v -0.097356 -0.163979 2.020346
v -0.097356 -0.105110 1.865162
v -0.155887 -0.093571 1.959431
v -0.097356 -0.147955 1.865012
v -0.183223 -0.093415 2.262549
v -0.183223 0.223267 2.267520
v -0.183223 -0.085681 1.856930
v -0.183223 0.221610 1.862454
v 0.027796 -1.281415 2.210617
v -0.050443 -1.172721 2.317035
v -0.029807 -1.201390 1.951778
v -0.104220 -1.098012 2.090748
v 0.029991 -1.284464 1.930725
v 0.111097 -1.397141 2.218035
v 0.141904 -1.439939 1.854974
v 0.175281 -1.486308 1.940508
v 0.069396 -1.339208 1.881719
v 0.153120 -1.455522 2.147337
v 0.176698 -1.488277 2.088377
v 0.097025 -1.377591 1.859378
v 0.080583 -1.354748 2.302264
v 0.125676 -1.417395 2.267946
v -0.050278 -0.424808 2.090223
v -0.050278 -0.391932 2.139397
v -0.126872 -0.299658 1.959011
v -0.106728 -0.273794 2.011469
v -0.016272 -0.453676 2.049675
v 0.021123 -0.476892 1.972752
v -0.053156 -0.419346 1.920569
v -0.065723 -0.411142 1.998747
v -0.050370 -0.669139 1.930321
v 0.018497 -0.697348 1.963560
v -0.016504 -0.664539 2.048861
v -0.018815 0.549814 2.135144
v -0.018815 0.663664 2.137310
v -0.018815 0.574209 1.958793
v -0.018815 0.663068 1.960812
v -0.018815 0.551264 2.042978
v -0.018815 0.674105 2.045356
v -0.153460 0.209131 2.128102
v -0.153460 0.231543 2.110499
v -0.153460 0.177033 2.090357
v -0.153460 0.214916 2.066014
v 0.104068 -1.405290 2.017636
v 0.102408 -1.215389 2.013419
v 0.075356 -1.350353 1.944699
v 0.074787 -1.126776 1.943253
v 0.093183 -1.195330 1.989984
v 0.092602 -1.383351 1.988508
v 0.082620 -1.152090 1.963153
v 0.080994 -1.361141 1.959022
v 0.086522 -1.173425 1.973064
v 0.087904 -1.374362 1.976575
v -0.154013 -0.085564 2.241258
v -0.154013 -0.067271 2.230584
v -0.154013 -0.111482 2.214562
v -0.154013 -0.081277 2.202204
v -0.023816 -0.895520 2.240277
v -0.020372 -0.863866 2.241312
v -0.003962 -0.917737 2.180171
v -0.001932 -0.883110 2.176737
v 0.012131 -0.938261 2.211662
v 0.015787 -0.893358 2.209899
v 0.002106 -0.854366 2.223281
v -0.005646 -0.845427 2.200639
v -0.154521 0.207840 2.258521
v -0.154521 0.232006 2.236754
v -0.154521 0.172668 2.216283
v -0.154521 0.209091 2.198562
v -0.120015 -0.012029 1.990703
v -0.120015 0.016429 2.017063
v -0.120015 0.007031 1.862163
v -0.120015 0.052683 1.850833
v -0.120015 0.116228 1.863846
v -0.120015 0.063896 2.038114
v -0.120015 0.169236 1.952428
v -0.120015 0.084796 2.073483
v -0.120015 0.178664 2.023426
v -0.120015 0.103098 2.090934
v -0.120015 0.199761 2.058131
v -0.120015 0.108283 2.101160
v -0.120015 0.182472 2.088464
v -0.120015 0.109048 2.112216
v -0.120015 0.185226 2.106212
v -0.120015 0.108436 2.127515
v -0.120015 0.174210 2.161290
v -0.120015 0.092219 2.141897
v -0.120015 0.157075 2.216675
v -0.120015 0.075083 2.140061
v -0.120015 0.106108 2.286422
v -0.120015 0.053492 2.117398
v -0.120015 0.008976 2.248804
v -0.120015 0.040508 2.087737
v -0.120015 -0.032685 2.149102
v -0.120015 -0.010333 2.096967
v 0.040980 -0.689095 2.193384
v 0.120494 -0.753410 2.049806
v -0.008164 -0.651554 1.865604
v -0.008164 -0.633680 2.066055
v -0.008164 -0.921179 1.851661
v 0.120494 -1.035657 2.047217
v 0.016673 -0.944985 2.237623
v -0.001556 0.357945 2.232637
v -0.001556 0.460128 2.323946
v -0.001556 0.395943 2.151114
v -0.001556 0.517909 2.216671
v -0.001556 0.417162 2.037701
v -0.001556 0.561530 2.078367
v -0.001556 0.398436 1.941082
v -0.001556 0.545791 1.904083
v -0.001556 0.350965 1.847652
v -0.001556 0.498321 1.810653
v 0.042196 -1.044326 2.056994
v 0.019601 -1.031786 2.023639
v 0.072999 -1.097761 1.942669
v 0.072999 -1.360921 1.949905
v 0.019601 -1.274327 2.031515
v 0.050567 -1.318289 2.099120
v 0.072999 -1.173083 1.944740
v 0.019601 -1.107097 2.026085
v 0.042196 -1.119676 2.057436
v 0.072999 -1.207475 1.945686
v 0.019601 -1.141484 2.027201
v 0.050567 -1.224173 2.098902
v -0.193415 -0.292399 2.236726
v -0.193415 -0.180757 2.306627
v -0.193415 -0.241457 2.123340
v -0.193415 -0.126461 2.189893
v 0.134871 -1.046398 2.268516
v 0.039147 -0.957238 2.338416
v 0.037545 -0.955747 2.121384
v -0.024155 -0.898278 2.231652
v 0.068350 -0.984439 2.055296
v 0.189275 -1.097070 2.148869
v 0.063441 -0.979866 2.022531
v 0.206318 -1.112944 2.039702
v 0.048826 -0.966254 1.975932
v 0.149172 -1.059717 1.942948
v 0.001337 -0.922022 1.867459
v 0.036170 -0.954466 1.782914
v 0.080662 -0.995906 1.845924
v 0.034233 -0.952662 1.942599
v 0.172618 -1.081555 1.887359
v 0.127775 -1.039788 1.804397
v -0.135919 0.176659 1.976233
v -0.135919 0.201564 1.974834
v -0.135919 0.165017 1.934499
v -0.135919 0.193279 1.934077
v -0.147871 0.152865 1.886202
v -0.147871 0.190970 1.913366
v -0.147871 0.175945 1.834832
v -0.147871 0.215569 1.860479
v -0.147871 0.211593 2.042035
v -0.147871 0.238344 2.025439
v -0.147871 0.173238 1.997520
v -0.147871 0.211266 1.984740
v -0.046109 -0.331869 2.244576
v 0.043387 -0.364234 2.174329
v 0.043387 -0.742852 2.166193
v -0.046109 -0.694074 2.234725
v -0.046109 -0.315504 2.076153
v -0.099141 -0.299023 2.143655
v -0.046109 -0.668343 2.060754
v -0.046109 -0.479187 2.079792
v 0.043387 -0.540427 2.170335
v -0.046109 -0.491677 2.239980
v -0.046109 -0.405084 2.081312
v 0.043387 -0.464723 2.172051
v -0.046109 -0.415985 2.242157
v -0.051699 0.226334 2.198949
v -0.051699 0.407909 2.197136
v -0.051699 0.277408 1.908427
v -0.051699 0.416301 1.911413
v -0.051699 0.187669 2.041079
v -0.051699 0.451723 2.043783
v -0.051699 0.201884 2.124701
v -0.051699 0.428764 2.124140
v -0.051699 0.217066 1.973430
v -0.051699 0.440175 1.979333
vt 0.428216 0.526995
vt 0.361747 0.625727
vt 0.363409 0.589833
vt 0.421504 0.512756
vt 0.432939 0.550914
vt 0.378552 0.645288
vt 0.675843 0.291466
vt 0.726226 0.206655
vt 0.766821 0.236565
vt 0.713777 0.318015
vt 0.725310 0.001877
vt 0.765370 0.073183
vt 0.675256 0.079738
vt 0.455182 0.274847
vt 0.505629 0.233761
vt 0.503283 0.502496
vt 0.449610 0.535271
vt 0.502867 0.550150
vt 0.448592 0.582888
vt 0.530934 0.605959
vt 0.474545 0.634796
vt 0.531013 0.561054
vt 0.286449 0.661983
vt 0.499013 0.670088
vt 0.496118 0.992159
vt 0.283844 0.993896
vt 0.812908 0.275414
vt 0.948552 0.378757
vt 0.875725 0.512257
vt 0.757140 0.415779
vt 0.809020 0.125967
vt 0.959585 0.271476
vt 0.985266 0.200781
vt 0.846070 0.050575
vt 0.876968 0.008275
vt 0.996974 0.151213
vt 0.954458 0.010818
vt 0.999282 0.070698
vt 0.764881 0.180712
vt 0.782865 0.099811
vt 0.928672 0.478922
vt 0.997434 0.610091
vt 0.969943 0.637199
vt 0.902903 0.513379
vt 0.594956 0.489406
vt 0.628333 0.455611
vt 0.665321 0.515924
vt 0.627737 0.538628
vt 0.633344 0.224551
vt 0.660006 0.254117
vt 0.595400 0.268402
vt 0.262189 0.534643
vt 0.310488 0.536163
vt 0.309242 0.664911
vt 0.261054 0.653968
vt 0.354605 0.560211
vt 0.353548 0.653343
vt 0.333695 0.259009
vt 0.353475 0.225367
vt 0.366232 0.265072
vt 0.342920 0.282499
vt 0.663381 0.048427
vt 0.671447 0.059734
vt 0.672261 0.294063
vt 0.661054 0.267532
vt 0.630370 0.002154
vt 0.646774 0.025148
vt 0.645943 0.222212
vt 0.632745 0.201189
vt 0.653495 0.034569
vt 0.655472 0.245171
vt 0.324762 0.129865
vt 0.338752 0.102700
vt 0.345228 0.134358
vt 0.330355 0.149037
vt 0.386907 0.290977
vt 0.404283 0.266965
vt 0.404465 0.314217
vt 0.397204 0.343926
vt 0.385758 0.324288
vt 0.419450 0.288028
vt 0.420754 0.324467
vt 0.409738 0.353333
vt 0.265349 0.257656
vt 0.287484 0.220792
vt 0.296771 0.258967
vt 0.276756 0.282984
vt 0.405699 0.027212
vt 0.473060 0.047188
vt 0.478997 0.095037
vt 0.391885 0.057039
vt 0.472178 0.161637
vt 0.380853 0.106789
vt 0.425757 0.217195
vt 0.362318 0.128694
vt 0.388550 0.227076
vt 0.353173 0.147876
vt 0.370363 0.249188
vt 0.347814 0.153311
vt 0.354467 0.231068
vt 0.342020 0.154113
vt 0.345167 0.233954
vt 0.334003 0.153471
vt 0.316303 0.222408
vt 0.326466 0.136474
vt 0.287278 0.204449
vt 0.327428 0.118514
vt 0.250728 0.151031
vt 0.339304 0.095885
vt 0.270441 0.049227
vt 0.354849 0.082276
vt 0.322690 0.005563
vt 0.350011 0.028990
vt 0.812955 0.883915
vt 0.888197 0.816507
vt 0.984727 0.937700
vt 0.879681 0.989428
vt 0.889553 0.535108
vt 0.992034 0.685980
vt 0.789092 0.660962
vt 0.595391 0.778724
vt 0.638113 0.818550
vt 0.603758 0.946381
vt 0.547541 0.885822
vt 0.697547 0.840789
vt 0.676236 0.992101
vt 0.748180 0.821162
vt 0.767569 0.975605
vt 0.797142 0.771409
vt 0.816531 0.925851
vt 0.711567 0.471601
vt 0.709306 0.332368
vt 0.754547 0.283965
vt 0.756758 0.444791
vt 0.675017 0.297031
vt 0.675132 0.395674
vt 0.713433 0.586575
vt 0.712152 0.507642
vt 0.757254 0.480837
vt 0.758339 0.559782
vt 0.699488 0.494353
vt 0.699720 0.573326
vt 0.796366 0.455025
vt 0.855786 0.508417
vt 0.820909 0.628943
vt 0.759735 0.572036
vt 0.534454 0.629994
vt 0.611558 0.769394
vt 0.553772 0.857768
vt 0.497823 0.767100
vt 0.597155 0.552071
vt 0.646192 0.725273
vt 0.654364 0.527660
vt 0.663362 0.732304
vt 0.705067 0.609511
vt 0.687782 0.753236
vt 0.755912 0.707638
vt 0.705250 0.774138
vt 0.788933 0.771364
vt 0.744627 0.821255
vt 0.734198 0.575929
vt 0.777674 0.640158
vt 0.413282 0.224975
vt 0.435152 0.212773
vt 0.435374 0.242394
vt 0.414015 0.251078
vt 0.460462 0.200037
vt 0.487383 0.224226
vt 0.473942 0.265756
vt 0.446227 0.239974
vt 0.378799 0.261589
vt 0.402126 0.221390
vt 0.408824 0.261247
vt 0.387496 0.289627
vt 0.513541 0.087160
vt 0.549455 0.036036
vt 0.547285 0.227558
vt 0.510787 0.278652
vt 0.508379 0.446146
vt 0.545192 0.412225
vt 0.596641 0.463299
vt 0.561267 0.498055
vt 0.604711 0.114129
vt 0.594734 0.291743
vt 0.546385 0.306903
vt 0.593937 0.369411
vt 0.509647 0.357985
vt 0.252648 0.312883
vt 0.291557 0.287257
vt 0.291852 0.525049
vt 0.253598 0.503190
vt 0.335379 0.272358
vt 0.370831 0.303169
vt 0.367737 0.537009
vt 0.333962 0.549112
vt 0.404895 0.366413
vt 0.403330 0.511986
vn 0.845707 0.199318 -0.495027
vn 0.847198 0.196539 -0.493587
vn 0.936368 -0.051243 -0.347261
vn 0.936368 -0.051243 -0.347261
vn 0.749960 0.345849 -0.563869
vn 0.749960 0.345849 -0.563869
vn 0.879139 0.396066 0.265041
vn 0.985340 0.167868 0.030407
vn 0.806377 0.414565 -0.421771
vn 0.723220 0.672945 -0.155236
vn 0.996791 -0.001575 0.080029
vn 0.738541 -0.008955 -0.674149
vn 0.788630 0.004611 0.614851
vn 0.873534 -0.026640 0.486034
vn 0.873534 -0.026640 0.486035
vn 0.904012 -0.024097 0.426828
vn 0.872835 -0.024412 0.487404
vn 0.768481 0.638664 0.039315
vn 0.658167 0.701149 0.274239
vn 0.517414 0.846585 -0.124806
vn 0.368248 0.926346 0.079219
vn 0.677941 0.007854 -0.735075
vn 1.000000 -0.000000 0.000000
vn 1.000000 -0.000000 0.000000
vn 1.000000 -0.000000 0.000000
vn 1.000000 -0.000000 0.000000
vn 0.811606 0.584206 0.000000
vn 0.811606 0.584206 0.000000
vn 0.811606 0.584206 0.000000
vn 0.811606 0.584206 0.000000
vn 0.811605 0.584206 -0.000000
vn 0.811605 0.584206 -0.000000
vn 0.811605 0.584206 -0.000000
vn 0.811605 0.584206 -0.000000
vn 0.811605 0.584206 0.000001
vn 0.811605 0.584206 0.000001
vn 0.811605 0.584206 0.000001
vn 0.811605 0.584206 0.000001
vn 0.811606 0.584206 0.000001
vn 0.811606 0.584206 0.000001
vn 0.811606 0.584205 0.000001
vn 0.811606 0.584205 0.000001
vn 0.811605 0.584206 -0.000001
vn 0.811605 0.584207 -0.000001
vn 0.811605 0.584207 -0.000001
vn 0.811605 0.584207 -0.000001
vn 0.934741 0.194250 -0.297536
vn 0.934740 0.194250 -0.297535
vn 0.934740 0.194250 -0.297536
vn 0.934741 0.194250 -0.297536
vn 0.908597 0.256693 0.329485
vn 0.939655 0.137602 -0.313232
vn 0.661176 0.321423 -0.677889
vn 0.610077 0.791516 0.036178
vn 0.944153 -0.010671 -0.329334
vn 0.512067 -0.000848 -0.858945
vn 0.911064 -0.015596 0.411970
vn 1.000000 -0.000000 0.000000
vn 1.000000 0.000000 0.000000
vn 1.000000 0.000000 0.000000
vn 1.000000 -0.000000 0.000000
vn 1.000000 0.000000 0.000000
vn 1.000000 0.000000 0.000000
vn 1.000000 0.000000 0.000000
vn 1.000000 0.000000 0.000000
vn 1.000000 0.000000 0.000000
vn 1.000000 0.000000 0.000000
vn 0.930497 0.000000 -0.366299
vn 0.930496 0.000000 -0.366302
vn 0.930496 0.000000 -0.366302
vn 0.930496 0.000000 -0.366301
vn 0.930496 0.000000 -0.366301
vn 0.930497 0.000000 -0.366300
vn 0.930498 -0.000000 -0.366297
vn 0.930496 0.000000 -0.366301
vn 0.930499 -0.000000 -0.366296
vn 0.930498 -0.000000 -0.366297
vn 1.000000 0.000000 0.000000
vn 1.000000 0.000000 0.000000
vn 1.000000 0.000000 0.000000
vn 1.000000 0.000000 0.000000
vn 0.616324 -0.047095 0.786084
vn 0.927219 -0.085279 0.364682
vn 0.926410 0.015339 0.376205
vn 0.616324 -0.047095 0.786084
vn 0.616324 -0.047095 0.786084
vn 0.863101 -0.094123 -0.496183
vn 0.905718 0.135914 -0.401501
vn 0.893363 0.343513 -0.289656
vn 0.893363 0.343513 -0.289656
vn 1.000000 0.000000 0.000000
vn 1.000000 0.000000 0.000000
vn 1.000000 0.000000 0.000000
vn 1.000000 0.000000 0.000000
vn 1.000000 0.000000 0.000000
vn 1.000000 0.000000 0.000000
vn 1.000000 0.000000 0.000000
vn 1.000000 0.000000 0.000000
vn 1.000000 -0.000000 0.000000
vn 1.000000 -0.000000 0.000000
vn 1.000000 -0.000000 0.000000
vn 1.000000 -0.000000 0.000000
vn 1.000000 0.000000 0.000000
vn 1.000000 0.000000 0.000000
vn 1.000000 0.000000 0.000000
vn 1.000000 0.000000 0.000000
vn 1.000000 0.000000 0.000000
vn 1.000000 0.000000 0.000000
vn 1.000000 0.000000 0.000000
vn 1.000000 0.000000 0.000000
vn 1.000000 0.000000 0.000000
vn 1.000000 0.000000 0.000000
vn 1.000000 0.000000 0.000000
vn 1.000000 0.000000 0.000000
vn 1.000000 0.000000 0.000000
vn 1.000000 0.000000 0.000000
vn 1.000000 0.000000 0.000000
vn 1.000000 0.000000 0.000000
vn 1.000000 -0.000000 0.000000
vn 1.000000 -0.000000 0.000000
vn 1.000000 -0.000000 0.000000
vn 1.000000 -0.000000 0.000000
vn 1.000000 -0.000000 0.000000
vn 1.000000 -0.000000 0.000000
vn 1.000000 -0.000000 0.000000
vn 1.000000 -0.000001 0.000000
vn 1.000000 -0.000000 0.000000
vn 1.000000 0.000000 0.000000
vn 1.000000 0.000000 0.000000
vn 1.000000 0.000000 0.000000
vn 1.000000 -0.000000 0.000000
vn 1.000000 -0.000000 0.000000
vn 1.000000 -0.000000 0.000000
vn 1.000000 -0.000000 0.000000
vn 1.000000 0.000000 0.000000
vn 1.000000 0.000000 0.000000
vn 1.000000 0.000000 0.000000
vn 1.000000 0.000000 0.000000
vn 0.898874 0.250082 0.359839
vn 0.981138 0.170581 -0.090945
vn 0.862676 0.198215 -0.465297
vn 0.679922 0.733064 -0.017984
vn 0.996135 0.009197 -0.087358
vn 0.832110 0.016606 -0.554361
vn 0.876164 -0.002270 0.482008
vn 1.000000 0.000000 0.000000
vn 1.000000 0.000000 0.000000
vn 1.000000 0.000000 0.000000
vn 1.000000 0.000000 0.000000
vn 1.000000 0.000000 0.000000
vn 1.000000 0.000000 0.000000
vn 1.000000 0.000000 0.000000
vn 1.000000 0.000000 0.000000
vn 1.000000 0.000000 0.000000
vn 1.000000 0.000000 0.000000
vn 1.000000 0.000000 0.000000
vn 1.000000 0.000000 0.000000
vn 1.000000 0.000000 0.000000
vn 1.000000 0.000000 0.000000
vn 1.000000 0.000000 0.000000
vn 1.000000 0.000000 0.000000
vn 0.986076 -0.018429 0.165274
vn 0.975607 0.008182 0.219371
vn 0.843336 0.016010 0.537148
vn 0.843211 0.016025 0.537344
vn 0.910938 -0.008236 -0.412462
vn 0.907468 -0.014170 -0.419883
vn 0.979389 0.008467 0.201805
vn 0.977811 -0.007530 0.209354
vn 0.841680 0.016183 0.539733
vn 0.841282 0.016202 0.540354
vn 0.829346 -0.078841 -0.553145
vn 0.817792 -0.011031 -0.575408
vn 1.000000 0.000000 0.000000
vn 1.000000 0.000000 0.000000
vn 1.000000 0.000000 0.000000
vn 1.000000 0.000000 0.000000
vn 0.681567 0.731755 -0.000000
vn 0.681567 0.731756 -0.000000
vn 0.681567 0.731756 -0.000000
vn 0.681567 0.731756 -0.000000
vn 0.681568 0.731755 -0.000000
vn 0.681568 0.731755 -0.000000
vn 0.681568 0.731755 -0.000000
vn 0.681568 0.731755 -0.000000
vn 0.681567 0.731756 -0.000001
vn 0.681567 0.731756 -0.000001
vn 0.681567 0.731756 -0.000001
vn 0.681567 0.731756 -0.000001
vn 0.681569 0.731753 -0.000001
vn 0.681569 0.731754 -0.000001
vn 0.681569 0.731754 -0.000001
vn 0.681569 0.731754 -0.000001
vn 0.681567 0.731756 0.000000
vn 0.681567 0.731756 0.000000
vn 0.681568 0.731755 0.000000
vn 0.681567 0.731756 0.000000
vn 0.681568 0.731755 0.000000
vn 0.681568 0.731755 0.000000
vn 0.681568 0.731755 0.000000
vn 0.681568 0.731755 0.000000
vn 0.681568 0.731755 0.000000
vn 0.681568 0.731755 0.000000
vn 1.000000 -0.000001 0.000000
vn 1.000000 -0.000001 0.000000
vn 1.000000 -0.000001 0.000000
vn 1.000000 -0.000001 0.000000
vn 1.000000 0.000000 0.000000
vn 1.000000 0.000000 0.000000
vn 1.000000 0.000000 0.000000
vn 1.000000 0.000000 0.000000
vn 1.000000 -0.000001 0.000000
vn 1.000000 -0.000001 0.000000
vn 1.000000 -0.000001 0.000000
vn 1.000000 -0.000001 0.000000
vn 0.604638 -0.018484 0.796286
vn 0.998841 0.017236 0.044936
vn 0.999802 0.014860 0.013246
vn 0.606106 -0.019240 0.795151
vn 0.597002 0.656807 0.460644
vn 0.911941 0.409805 0.020564
vn 0.683285 0.661055 -0.310046
vn 0.398566 0.912841 0.088699
vn 0.751137 0.039010 -0.658993
vn 0.738348 0.029983 -0.673754
vn 0.999937 -0.010769 -0.003255
vn 0.720991 -0.002702 -0.692939
vn 0.610329 -0.020218 0.791890
vn 1.000000 0.000000 0.000000
vn 1.000000 0.000000 0.000000
vn 1.000000 0.000000 0.000000
vn 1.000000 0.000000 0.000000
vn 1.000000 0.000000 0.000000
vn 1.000000 -0.000000 0.000000
vn 1.000000 -0.000000 0.000000
vn 1.000000 0.000000 0.000000
vn 1.000000 -0.000000 0.000000
vn 1.000000 -0.000000 0.000000
s 1
g bridge:pCube35
usemtl initialShadingGroup
f 5/1/1 6/2/2 4/3/3 2/4/4
f 1/5/5 3/6/6 6/2/2 5/1/1
s 2
f 7/7/7 8/8/8 9/9/9 10/10/10
f 8/8/8 12/11/11 11/12/12 9/9/9
f 13/13/13 12/11/11 8/8/8 7/7/7
s 3
f 14/14/14 16/15/15 18/16/16 19/17/17
f 19/17/17 18/16/16 17/18/18 15/19/19
f 15/19/19 17/18/18 20/20/20 21/21/21
f 17/18/18 18/16/16 22/22/22 20/20/20
s off
f 23/23/23 25/24/24 26/25/25 24/26/26
f 27/27/27 29/28/28 30/29/29 28/30/30
f 29/28/31 27/27/32 32/31/33 31/32/34
s 4
f 35/33/35 36/34/36 37/35/37 38/36/38
f 31/32/39 32/31/40 36/34/36 35/33/35
f 38/36/38 37/35/37 34/37/41 33/38/42
s off
f 32/31/43 27/27/44 39/39/45 40/40/46
f 41/41/47 43/42/48 44/43/49 42/44/50
s 5
f 45/45/51 46/46/52 47/47/53 48/48/54
f 46/46/52 50/49/55 49/50/56 47/47/53
f 51/51/57 50/49/55 46/46/52 45/45/51
s 6
usemtl lambert4SG
f 52/52/58 56/53/59 57/54/60 53/55/61
f 56/53/59 54/56/62 55/57/63 57/54/60
s off
usemtl initialShadingGroup
f 58/58/64 60/59/65 61/60/66 59/61/67
s 7
f 69/62/68 64/63/69 65/64/70 68/65/71
f 62/66/72 67/67/73 66/68/74 63/69/75
f 71/70/76 69/62/68 68/65/71 70/71/77
f 67/67/73 71/70/76 70/71/77 66/68/74
s off
f 72/72/78 74/73/79 75/74/80 73/75/81
s 9
f 76/76/82 80/77/83 81/78/84 82/79/85 77/80/86
f 80/77/83 78/81/87 79/82/88 81/78/84
f 81/78/84 79/82/88 83/83/89 82/79/90
s off
f 84/84/91 86/85/92 87/86/93 85/87/94
f 88/88/95 90/89/96 91/90/97 89/91/98
f 89/91/99 91/90/100 92/92/101 93/93/102
f 93/93/103 92/92/104 94/94/105 95/95/106
f 95/95/107 94/94/108 96/96/109 97/97/110
f 97/97/111 96/96/112 98/98/113 99/99/114
f 99/99/115 98/98/116 100/100/117 101/101/118
f 101/101/119 100/100/120 102/102/121 103/103/122
s 10
f 103/103/123 102/102/124 104/104/125 105/105/126
f 105/105/126 104/104/125 106/106/127 107/107/128
f 107/107/128 106/106/127 108/108/129 109/109/130
s off
f 109/109/131 108/108/132 110/110/133 111/111/134
f 111/111/135 110/110/136 112/112/137 113/113/138
s 11
f 114/114/139 115/115/140 116/116/141 117/117/142
f 115/115/140 119/118/143 118/119/144 116/116/141
f 120/120/145 119/118/143 115/115/140 114/114/139
s off
f 121/121/146 123/122/147 124/123/148 122/124/149
f 124/123/150 123/122/151 125/125/152 126/126/153
f 126/126/154 125/125/155 127/127/156 128/128/157
f 128/128/158 127/127/159 129/129/160 130/130/161
s 12
f 141/131/162 135/132/163 134/133/164 140/134/165
f 136/135/166 135/132/163 141/131/162 142/136/167
f 132/137/168 138/138/169 137/139/170 133/140/171
f 139/141/172 138/138/169 132/137/168 131/142/173
f 138/138/169 141/131/162 140/134/165 137/139/170
f 142/136/167 141/131/162 138/138/169 139/141/172
s off
f 143/143/174 145/144/175 146/145/176 144/146/177
f 147/147/178 149/148/179 150/149/180 148/150/181
f 149/148/182 147/147/183 152/151/184 151/152/185
f 151/152/186 152/151/187 154/153/188 153/154/189
f 153/154/190 154/153/191 156/155/192 155/156/193
s 14
f 155/156/194 156/155/195 159/157/196 160/158/197
f 160/158/197 159/157/196 158/159/198 157/160/199
s off
f 159/157/200 156/155/201 161/161/202 162/162/203
f 163/163/204 165/164/205 166/165/206 164/166/207
f 167/167/208 169/168/209 170/169/210 168/170/211
f 171/171/212 173/172/213 174/173/214 172/174/215
s 15
f 178/175/216 177/176/217 183/177/218 184/178/219
f 175/179/220 176/180/221 179/181/222 180/182/223
f 183/177/218 177/176/217 181/183/224 182/184/225
f 186/185/226 183/177/218 182/184/225 185/186/227
f 184/178/219 183/177/218 186/185/226 187/187/228
f 176/180/221 186/185/226 185/186/227 179/181/222
f 187/187/228 186/185/226 176/180/221 175/179/220
s 17
f 188/188/229 194/189/230 195/190/231 189/191/232
f 192/192/233 196/193/234 197/194/235 193/195/236
f 194/189/230 192/192/233 193/195/236 195/190/231
f 196/193/234 190/196/237 191/197/238 197/194/235
