# This file uses centimeters as units for non-parametric coordinates.

mtllib BG_02_Tile.mtl
g default
v 8.673836 -0.054539 -150.192108
v 8.673836 -0.054539 -112.644081
v 8.673836 18.719477 -150.192108
v 8.673836 18.719477 -112.644081
v 14.943855 -0.054539 -150.192108
v 14.943855 -0.054539 -112.644081
v 13.544853 18.667278 -150.192108
v 13.544853 18.667278 -112.644081
v 9.450600 -0.054539 -150.192108
v 9.450603 -0.054539 -112.644081
v 9.450600 18.719477 -150.192108
v 9.450603 18.719477 -112.644081
v 18.401863 -0.054539 -150.192108
v 18.401863 -0.054539 -112.644081
v 18.401863 18.719477 -150.192108
v 18.401863 18.719477 -112.644081
v 21.837967 -2.644400 -150.192108
v 21.837963 -2.644400 -112.644081
v 21.837967 16.129616 -150.192108
v 21.837963 16.129616 -112.644081
v 6.967934 -0.069153 -150.192108
v 6.967934 -0.069153 -112.644073
v 3.080162 18.297907 -150.192108
v 3.080162 18.297907 -112.644081
v 14.943855 -0.054539 -150.192108
v 14.943855 -0.054539 -112.644081
v 14.943855 18.719477 -150.192108
v 14.943855 18.719477 -112.644081
v 14.943855 0.180853 -150.192108
v 14.943855 0.180853 -112.644081
v 26.916023 -0.054539 -150.192108
v 26.916019 -0.054539 -112.644073
v 26.916016 22.839378 -150.192108
v 26.916019 22.839378 -112.644081
v 0.000000 0.000000 -75.096054
v 0.000000 0.000000 -112.644073
v 38.961121 0.000002 -75.096054
v 38.961113 0.000002 -112.644081
v 8.673828 -0.054539 -75.096046
v 8.673836 -0.054539 -112.644081
v 8.673828 18.719477 -75.096046
v 8.673836 18.719477 -112.644081
v 14.943848 -0.054539 -75.096054
v 14.943855 -0.054539 -112.644081
v 13.544861 18.667278 -75.096054
v 13.544853 18.667278 -112.644081
v 21.837967 -2.644400 -75.096054
v 21.837963 -2.644400 -112.644081
v 21.837967 16.129616 -75.096054
v 21.837963 16.129616 -112.644081
v 6.967941 -0.069153 -75.096054
v 6.967934 -0.069153 -112.644073
v 3.080154 18.297907 -75.096046
v 3.080162 18.297907 -112.644081
v 14.943863 -0.054539 -75.096054
v 14.943855 -0.054539 -112.644081
v 14.943848 18.719477 -75.096054
v 14.943855 18.719477 -112.644081
v 14.943848 0.180853 -75.096054
v 14.943855 0.180853 -112.644081
v 26.916016 -0.054539 -75.096054
v 26.916019 -0.054539 -112.644073
v 26.916016 22.839378 -75.096054
v 26.916019 22.839378 -112.644081
v 9.450603 -0.054539 -112.644081
v 9.450607 -0.054539 -75.096054
v 9.450603 18.719477 -112.644081
v 9.450607 18.719477 -75.096054
v 18.401871 -0.054539 -75.096054
v 18.401863 -0.054539 -112.644081
v 18.401871 18.719477 -75.096054
v 18.401863 18.719477 -112.644081
v 0.000000 0.000000 -150.192108
v 0.000000 0.000000 -112.644073
v 38.961113 0.000002 -150.192108
v 38.961113 0.000002 -112.644081
v 8.673828 -0.054539 -225.288162
v 8.673828 -0.054539 -187.740128
v 8.673828 18.719477 -225.288162
v 8.673828 18.719477 -187.740128
v 14.943848 -0.054539 -225.288147
v 14.943848 -0.054539 -187.740128
v 13.544861 18.667278 -225.288147
v 13.544861 18.667278 -187.740128
v 9.450592 -0.054539 -225.288147
v 9.450607 -0.054539 -187.740143
v 9.450592 18.719477 -225.288147
v 9.450607 18.719477 -187.740143
v 18.401855 -0.054539 -225.288162
v 18.401871 -0.054539 -187.740143
v 18.401855 18.719477 -225.288162
v 18.401871 18.719477 -187.740143
v 21.837952 -2.644400 -225.288162
v 21.837967 -2.644400 -187.740143
v 21.837952 16.129616 -225.288162
v 21.837967 16.129616 -187.740143
v 6.967926 -0.069153 -225.288162
v 6.967941 -0.069153 -187.740128
v 3.080170 18.297907 -225.288162
v 3.080154 18.297907 -187.740143
v 14.943848 -0.054539 -225.288162
v 14.943863 -0.054539 -187.740143
v 14.943848 18.719477 -225.288147
v 14.943848 18.719477 -187.740128
v 14.943848 0.180853 -225.288147
v 14.943848 0.180853 -187.740128
v 26.916016 -0.054539 -225.288162
v 26.916016 -0.054539 -187.740143
v 26.916016 22.839378 -225.288147
v 26.916016 22.839378 -187.740143
v 0.000000 0.000000 -150.192108
v 0.000000 0.000000 -187.740128
v 38.961113 0.000002 -150.192108
v 38.961121 0.000002 -187.740143
v 8.673836 -0.054539 -150.192108
v 8.673828 -0.054539 -187.740128
v 8.673836 18.719477 -150.192108
v 8.673828 18.719477 -187.740128
v 14.943855 -0.054539 -150.192108
v 14.943848 -0.054539 -187.740128
v 13.544853 18.667278 -150.192108
v 13.544861 18.667278 -187.740128
v 21.837967 -2.644400 -150.192108
v 21.837967 -2.644400 -187.740143
v 21.837967 16.129616 -150.192108
v 21.837967 16.129616 -187.740143
v 6.967934 -0.069153 -150.192108
v 6.967941 -0.069153 -187.740128
v 3.080162 18.297907 -150.192108
v 3.080154 18.297907 -187.740143
v 14.943855 -0.054539 -150.192108
v 14.943863 -0.054539 -187.740143
v 14.943855 18.719477 -150.192108
v 14.943848 18.719477 -187.740128
v 14.943855 0.180853 -150.192108
v 14.943848 0.180853 -187.740128
v 26.916023 -0.054539 -150.192108
v 26.916016 -0.054539 -187.740143
v 26.916016 22.839378 -150.192108
v 26.916016 22.839378 -187.740143
v 9.450607 -0.054539 -187.740143
v 9.450600 -0.054539 -150.192108
v 9.450607 18.719477 -187.740143
v 9.450600 18.719477 -150.192108
v 18.401863 -0.054539 -150.192108
v 18.401871 -0.054539 -187.740143
v 18.401863 18.719477 -150.192108
v 18.401871 18.719477 -187.740143
v 0.000000 0.000000 -225.288147
v 0.000000 0.000000 -187.740128
v 38.961121 0.000002 -225.288147
v 38.961121 0.000002 -187.740143
v 8.673828 -0.054539 -75.096054
v 8.673828 -0.054539 -37.548027
v 8.673828 18.719477 -75.096054
v 8.673828 18.719477 -37.548027
v 14.943848 -0.054539 -75.096054
v 14.943848 -0.054539 -37.548031
v 13.544861 18.667278 -75.096054
v 13.544861 18.667278 -37.548031
v 9.450607 -0.054539 -75.096054
v 9.450592 -0.054539 -37.548027
v 9.450607 18.719477 -75.096054
v 9.450592 18.719477 -37.548027
v 18.401871 -0.054539 -75.096054
v 18.401855 -0.054539 -37.548027
v 18.401871 18.719477 -75.096054
v 18.401855 18.719477 -37.548027
v 21.837967 -2.644400 -75.096054
v 21.837952 -2.644400 -37.548027
v 21.837967 16.129616 -75.096054
v 21.837952 16.129616 -37.548027
v 6.967941 -0.069153 -75.096054
v 6.967926 -0.069153 -37.548027
v 3.080154 18.297907 -75.096054
v 3.080170 18.297907 -37.548027
v 14.943863 -0.054539 -75.096054
v 14.943848 -0.054539 -37.548027
v 14.943848 18.719477 -75.096054
v 14.943848 18.719477 -37.548031
v 14.943848 0.180853 -75.096054
v 14.943848 0.180853 -37.548031
v 26.916016 -0.054539 -75.096054
v 26.916016 -0.054539 -37.548027
v 26.916016 22.839378 -75.096054
v 26.916016 22.839378 -37.548027
v 0.000000 0.000000 0.000000
v 0.000000 0.000000 -37.548031
v 38.961121 0.000002 0.000000
v 38.961121 0.000002 -37.548027
v 8.673828 -0.054539 0.000000
v 8.673828 -0.054539 -37.548027
v 8.673828 18.719477 0.000000
v 8.673828 18.719477 -37.548027
v 14.943848 -0.054539 0.000000
v 14.943848 -0.054539 -37.548031
v 13.544861 18.667278 0.000000
v 13.544861 18.667278 -37.548031
v 21.837952 -2.644400 0.000000
v 21.837952 -2.644400 -37.548027
v 21.837952 16.129616 0.000000
v 21.837952 16.129616 -37.548027
v 6.967926 -0.069153 0.000000
v 6.967926 -0.069153 -37.548027
v 3.080170 18.297907 0.000000
v 3.080170 18.297907 -37.548027
v 14.943848 -0.054539 0.000000
v 14.943848 -0.054539 -37.548027
v 14.943848 18.719477 0.000000
v 14.943848 18.719477 -37.548031
v 14.943848 0.180853 0.000000
v 14.943848 0.180853 -37.548031
v 26.916016 -0.054539 0.000000
v 26.916016 -0.054539 -37.548027
v 26.916016 22.839378 0.000000
v 26.916016 22.839378 -37.548027
v 9.450592 -0.054539 -37.548027
v 9.450592 -0.054539 0.000000
v 9.450592 18.719477 -37.548027
v 9.450592 18.719477 0.000000
v 18.401855 -0.054539 0.000000
v 18.401855 -0.054539 -37.548027
v 18.401855 18.719477 0.000000
v 18.401855 18.719477 -37.548027
v 0.000000 0.000000 -75.096054
v 0.000000 0.000000 -37.548031
v 38.961121 0.000002 -75.096054
v 38.961121 0.000002 -37.548027
vt 0.001469 0.001519
vt 0.997485 0.001519
vt 0.997485 0.998481
vt 0.001469 0.998481
vt 0.001469 0.001519
vt 0.997485 0.001519
vt 0.997485 0.998481
vt 0.001469 0.998481
vt 0.001469 0.001519
vt 0.997485 0.001519
vt 0.997485 0.998481
vt 0.001469 0.998481
vt 0.001469 0.001519
vt 0.997485 0.001519
vt 0.997485 0.998481
vt 0.001469 0.998481
vt 0.001469 0.001519
vt 0.997485 0.001519
vt 0.997485 0.998481
vt 0.001469 0.998481
vt 0.001469 0.001519
vt 0.997485 0.001519
vt 0.997485 0.998481
vt 0.001469 0.998481
vt 0.001469 0.014019
vt 0.997485 0.014019
vt 0.997485 0.998481
vt 0.001469 0.998481
vt 0.001469 0.001519
vt 0.997485 0.001519
vt 0.001469 0.001519
vt 0.997485 0.001519
vt 0.997485 0.998481
vt 0.001469 0.998481
vt 0.001469 0.001519
vt 0.997485 0.001519
vt 0.997485 0.998481
vt 0.001469 0.998481
vt 0.001469 0.001519
vt 0.997485 0.001519
vt 0.997485 0.998481
vt 0.001469 0.998481
vt 0.001469 0.001519
vt 0.997485 0.001519
vt 0.997485 0.998481
vt 0.001469 0.998481
vt 0.001469 0.001519
vt 0.997485 0.001519
vt 0.997485 0.998481
vt 0.001469 0.998481
vt 0.001469 0.001519
vt 0.997485 0.001519
vt 0.997485 0.998481
vt 0.001469 0.998481
vt 0.001469 0.014019
vt 0.997485 0.014019
vt 0.997485 0.998481
vt 0.001469 0.998481
vt 0.001469 0.001519
vt 0.997485 0.001519
vt 0.001469 0.001519
vt 0.997485 0.001519
vt 0.997485 0.998481
vt 0.001469 0.998481
vt 0.001469 0.001519
vt 0.997485 0.001519
vt 0.997485 0.998481
vt 0.001469 0.998481
vt 0.001469 0.001519
vt 0.997485 0.001519
vt 0.997485 0.998481
vt 0.001469 0.998481
vt 0.001469 0.001519
vt 0.997485 0.001519
vt 0.997485 0.998481
vt 0.001469 0.998481
vt 0.001469 0.001519
vt 0.997485 0.001519
vt 0.997485 0.998481
vt 0.001469 0.998481
vt 0.001469 0.001519
vt 0.997485 0.001519
vt 0.997485 0.998481
vt 0.001469 0.998481
vt 0.001469 0.001519
vt 0.997485 0.001519
vt 0.997485 0.998481
vt 0.001469 0.998481
vt 0.001469 0.001519
vt 0.997485 0.001519
vt 0.997485 0.998481
vt 0.001469 0.998481
vt 0.001469 0.001519
vt 0.997485 0.001519
vt 0.997485 0.998481
vt 0.001469 0.998481
vt 0.001469 0.001519
vt 0.997485 0.001519
vt 0.997485 0.998481
vt 0.001469 0.998481
vt 0.001469 0.014019
vt 0.997485 0.014019
vt 0.997485 0.998481
vt 0.001469 0.998481
vt 0.001469 0.001519
vt 0.997485 0.001519
vt 0.001469 0.001519
vt 0.997485 0.001519
vt 0.997485 0.998481
vt 0.001469 0.998481
vt 0.001469 0.001519
vt 0.001469 0.998481
vt 0.997485 0.998481
vt 0.997485 0.001519
vt 0.001469 0.001519
vt 0.001469 0.998481
vt 0.997485 0.998481
vt 0.997485 0.001519
vt 0.001469 0.001519
vt 0.001469 0.998481
vt 0.997485 0.998481
vt 0.997485 0.001519
vt 0.001469 0.001519
vt 0.001469 0.998481
vt 0.997485 0.998481
vt 0.997485 0.001519
vt 0.001469 0.001519
vt 0.001469 0.998481
vt 0.997485 0.998481
vt 0.997485 0.001519
vt 0.001469 0.014019
vt 0.001469 0.998481
vt 0.997485 0.998481
vt 0.997485 0.014019
vt 0.001469 0.001519
vt 0.997485 0.001519
vt 0.001469 0.001519
vt 0.001469 0.998481
vt 0.997485 0.998481
vt 0.997485 0.001519
vt 0.001469 0.001519
vt 0.997485 0.001519
vt 0.997485 0.998481
vt 0.001469 0.998481
vt 0.001469 0.001519
vt 0.001469 0.998481
vt 0.997485 0.998481
vt 0.997485 0.001519
vt 0.001469 0.001519
vt 0.997485 0.001519
vt 0.997485 0.998481
vt 0.001469 0.998481
vt 0.001469 0.001519
vt 0.997485 0.001519
vt 0.997485 0.998481
vt 0.001469 0.998481
vt 0.001469 0.001519
vt 0.997485 0.001519
vt 0.997485 0.998481
vt 0.001469 0.998481
vt 0.001469 0.001519
vt 0.997485 0.001519
vt 0.997485 0.998481
vt 0.001469 0.998481
vt 0.001469 0.001519
vt 0.997485 0.001519
vt 0.997485 0.998481
vt 0.001469 0.998481
vt 0.001469 0.001519
vt 0.997485 0.001519
vt 0.997485 0.998481
vt 0.001469 0.998481
vt 0.001469 0.001519
vt 0.997485 0.001519
vt 0.997485 0.998481
vt 0.001469 0.998481
vt 0.001469 0.014019
vt 0.997485 0.014019
vt 0.997485 0.998481
vt 0.001469 0.998481
vt 0.001469 0.001519
vt 0.997485 0.001519
vt 0.001469 0.001519
vt 0.997485 0.001519
vt 0.997485 0.998481
vt 0.001469 0.998481
vt 0.001469 0.001519
vt 0.001469 0.998481
vt 0.997485 0.998481
vt 0.997485 0.001519
vt 0.001469 0.001519
vt 0.001469 0.998481
vt 0.997485 0.998481
vt 0.997485 0.001519
vt 0.001469 0.001519
vt 0.001469 0.998481
vt 0.997485 0.998481
vt 0.997485 0.001519
vt 0.001469 0.001519
vt 0.001469 0.998481
vt 0.997485 0.998481
vt 0.997485 0.001519
vt 0.001469 0.001519
vt 0.001469 0.998481
vt 0.997485 0.998481
vt 0.997485 0.001519
vt 0.001469 0.014019
vt 0.001469 0.998481
vt 0.997485 0.998481
vt 0.997485 0.014019
vt 0.001469 0.001519
vt 0.997485 0.001519
vt 0.001469 0.001519
vt 0.001469 0.998481
vt 0.997485 0.998481
vt 0.997485 0.001519
vt 0.001469 0.001519
vt 0.997485 0.001519
vt 0.997485 0.998481
vt 0.001469 0.998481
vt 0.001469 0.001519
vt 0.001469 0.998481
vt 0.997485 0.998481
vt 0.997485 0.001519
vt 0.001469 0.001519
vt 0.997485 0.001519
vt 0.997485 0.998481
vt 0.001469 0.998481
vn -1.000000 0.000000 0.000000
vn -1.000000 0.000000 0.000000
vn -1.000000 0.000000 0.000000
vn -1.000000 0.000000 0.000000
vn -0.997220 -0.074518 0.000000
vn -0.997220 -0.074518 0.000000
vn -0.997220 -0.074518 0.000000
vn -0.997220 -0.074518 0.000000
vn -1.000000 0.000000 0.000000
vn -1.000000 0.000000 0.000000
vn -1.000000 0.000000 0.000000
vn -1.000000 0.000000 0.000000
vn -1.000000 0.000000 0.000000
vn -1.000000 0.000000 0.000000
vn -1.000000 0.000000 0.000000
vn -1.000000 0.000000 0.000000
vn -1.000000 0.000000 -0.000000
vn -1.000000 0.000000 -0.000000
vn -1.000000 0.000000 -0.000000
vn -1.000000 0.000000 -0.000000
vn -0.978324 -0.207083 0.000000
vn -0.978324 -0.207083 0.000000
vn -0.978324 -0.207083 0.000000
vn -0.978324 -0.207083 0.000000
vn -1.000000 0.000000 0.000000
vn -1.000000 0.000000 0.000000
vn -1.000000 0.000000 0.000000
vn -1.000000 0.000000 0.000000
vn -1.000000 0.000000 0.000000
vn -1.000000 0.000000 0.000000
vn -1.000000 -0.000000 0.000000
vn -1.000000 -0.000000 0.000000
vn -1.000000 -0.000000 0.000000
vn -1.000000 -0.000000 0.000000
vn -0.000000 1.000000 0.000000
vn -0.000000 1.000000 0.000000
vn -0.000000 1.000000 0.000000
vn -0.000000 1.000000 0.000000
vn -1.000000 0.000000 -0.000000
vn -1.000000 0.000000 -0.000000
vn -1.000000 0.000000 -0.000000
vn -1.000000 0.000000 -0.000000
vn -0.997220 -0.074518 -0.000000
vn -0.997220 -0.074518 -0.000000
vn -0.997220 -0.074518 -0.000000
vn -0.997220 -0.074518 -0.000000
vn -1.000000 0.000000 0.000000
vn -1.000000 0.000000 0.000000
vn -1.000000 0.000000 0.000000
vn -1.000000 0.000000 0.000000
vn -0.978323 -0.207083 -0.000000
vn -0.978323 -0.207083 -0.000000
vn -0.978323 -0.207083 -0.000000
vn -0.978323 -0.207083 -0.000000
vn -1.000000 -0.000000 -0.000000
vn -1.000000 0.000000 -0.000000
vn -1.000000 0.000000 -0.000000
vn -1.000000 -0.000000 -0.000000
vn -1.000000 -0.000035 0.000000
vn -1.000000 -0.000035 0.000000
vn -1.000000 0.000000 -0.000000
vn -1.000000 0.000000 -0.000000
vn -1.000000 0.000000 -0.000000
vn -1.000000 0.000000 -0.000000
vn -1.000000 0.000000 0.000000
vn -1.000000 0.000000 0.000000
vn -1.000000 0.000000 0.000000
vn -1.000000 0.000000 0.000000
vn -1.000000 0.000000 0.000000
vn -1.000000 0.000000 0.000000
vn -1.000000 0.000000 0.000000
vn -1.000000 0.000000 0.000000
vn -0.000000 1.000000 0.000000
vn -0.000000 1.000000 0.000000
vn -0.000000 1.000000 0.000000
vn -0.000000 1.000000 0.000000
vn -1.000000 0.000000 0.000000
vn -1.000000 0.000000 0.000000
vn -1.000000 0.000000 0.000000
vn -1.000000 0.000000 0.000000
vn -0.997220 -0.074517 0.000000
vn -0.997220 -0.074517 0.000000
vn -0.997220 -0.074517 0.000000
vn -0.997220 -0.074517 0.000000
vn -1.000000 0.000000 0.000000
vn -1.000000 0.000000 0.000000
vn -1.000000 0.000000 0.000000
vn -1.000000 0.000000 0.000000
vn -1.000000 0.000000 0.000000
vn -1.000000 0.000000 0.000000
vn -1.000000 0.000000 0.000000
vn -1.000000 0.000000 0.000000
vn -1.000000 0.000000 0.000000
vn -1.000000 0.000000 0.000000
vn -1.000000 0.000000 0.000000
vn -1.000000 0.000000 0.000000
vn -0.978324 -0.207082 -0.000000
vn -0.978324 -0.207083 -0.000000
vn -0.978324 -0.207082 -0.000000
vn -0.978324 -0.207082 -0.000000
vn -1.000000 -0.000000 0.000000
vn -1.000000 -0.000000 0.000000
vn -1.000000 0.000000 0.000000
vn -1.000000 0.000000 0.000000
vn -1.000000 -0.000036 0.000000
vn -1.000000 -0.000036 0.000000
vn -1.000000 -0.000000 0.000000
vn -1.000000 -0.000000 0.000000
vn -1.000000 -0.000000 0.000000
vn -1.000000 -0.000000 0.000000
vn -0.000000 1.000000 -0.000000
vn -0.000000 1.000000 -0.000000
vn -0.000000 1.000000 -0.000000
vn -0.000000 1.000000 -0.000000
vn -1.000000 0.000000 0.000000
vn -1.000000 0.000000 0.000000
vn -1.000000 0.000000 0.000000
vn -1.000000 0.000000 0.000000
vn -0.997220 -0.074518 0.000000
vn -0.997220 -0.074518 0.000000
vn -0.997220 -0.074518 0.000000
vn -0.997220 -0.074518 0.000000
vn -1.000000 0.000000 0.000000
vn -1.000000 0.000000 0.000000
vn -1.000000 0.000000 0.000000
vn -1.000000 0.000000 0.000000
vn -0.978323 -0.207083 0.000000
vn -0.978323 -0.207083 0.000000
vn -0.978323 -0.207083 0.000000
vn -0.978323 -0.207083 0.000000
vn -1.000000 -0.000000 0.000000
vn -1.000000 0.000000 0.000000
vn -1.000000 0.000000 0.000000
vn -1.000000 -0.000000 0.000000
vn -1.000000 -0.000035 0.000000
vn -1.000000 -0.000035 0.000000
vn -1.000000 -0.000000 0.000000
vn -1.000000 -0.000000 0.000000
vn -1.000000 -0.000000 0.000000
vn -1.000000 -0.000000 0.000000
vn -1.000000 0.000000 -0.000000
vn -1.000000 0.000000 -0.000000
vn -1.000000 0.000000 -0.000000
vn -1.000000 0.000000 -0.000000
vn -1.000000 0.000000 -0.000000
vn -1.000000 0.000000 -0.000000
vn -1.000000 0.000000 -0.000000
vn -1.000000 0.000000 -0.000000
vn -0.000000 1.000000 0.000000
vn -0.000000 1.000000 0.000000
vn -0.000000 1.000000 0.000000
vn -0.000000 1.000000 0.000000
vn -1.000000 0.000000 0.000000
vn -1.000000 0.000000 0.000000
vn -1.000000 0.000000 0.000000
vn -1.000000 0.000000 0.000000
vn -0.997220 -0.074517 0.000000
vn -0.997220 -0.074517 0.000000
vn -0.997220 -0.074517 0.000000
vn -0.997220 -0.074517 0.000000
vn -1.000000 0.000000 -0.000000
vn -1.000000 0.000000 -0.000000
vn -1.000000 0.000000 -0.000000
vn -1.000000 0.000000 -0.000000
vn -1.000000 0.000000 -0.000000
vn -1.000000 0.000000 -0.000000
vn -1.000000 0.000000 -0.000000
vn -1.000000 0.000000 -0.000000
vn -1.000000 0.000000 -0.000000
vn -1.000000 0.000000 -0.000000
vn -1.000000 0.000000 -0.000000
vn -1.000000 0.000000 -0.000000
vn -0.978324 -0.207083 0.000000
vn -0.978323 -0.207083 0.000000
vn -0.978323 -0.207083 0.000000
vn -0.978324 -0.207083 0.000000
vn -1.000000 -0.000000 -0.000000
vn -1.000000 -0.000000 -0.000000
vn -1.000000 0.000000 0.000000
vn -1.000000 0.000000 0.000000
vn -1.000000 -0.000035 -0.000000
vn -1.000000 -0.000035 -0.000000
vn -1.000000 0.000000 0.000000
vn -1.000000 0.000000 0.000000
vn -1.000000 0.000000 0.000000
vn -1.000000 0.000000 0.000000
vn -0.000000 1.000000 0.000000
vn -0.000000 1.000000 0.000000
vn -0.000000 1.000000 0.000000
vn -0.000000 1.000000 0.000000
vn -1.000000 0.000000 0.000000
vn -1.000000 0.000000 0.000000
vn -1.000000 0.000000 0.000000
vn -1.000000 0.000000 0.000000
vn -0.997220 -0.074517 0.000000
vn -0.997220 -0.074517 0.000000
vn -0.997220 -0.074517 0.000000
vn -0.997220 -0.074517 0.000000
vn -1.000000 0.000000 0.000000
vn -1.000000 0.000000 0.000000
vn -1.000000 0.000000 0.000000
vn -1.000000 0.000000 0.000000
vn -0.978324 -0.207082 0.000000
vn -0.978324 -0.207082 0.000000
vn -0.978324 -0.207082 0.000000
vn -0.978324 -0.207082 0.000000
vn -1.000000 0.000000 0.000000
vn -1.000000 0.000000 0.000000
vn -1.000000 0.000000 0.000000
vn -1.000000 0.000000 0.000000
vn -1.000000 0.000000 0.000000
vn -1.000000 0.000000 0.000000
vn -1.000000 0.000000 0.000000
vn -1.000000 0.000000 0.000000
vn -1.000000 0.000000 0.000000
vn -1.000000 0.000000 0.000000
vn -1.000000 0.000000 0.000000
vn -1.000000 0.000000 0.000000
vn -1.000000 0.000000 0.000000
vn -1.000000 0.000000 0.000000
vn -1.000000 0.000000 0.000000
vn -1.000000 0.000000 0.000000
vn -1.000000 0.000000 0.000000
vn -1.000000 0.000000 0.000000
vn -0.000000 1.000000 0.000000
vn -0.000000 1.000000 0.000000
vn -0.000000 1.000000 0.000000
vn -0.000000 1.000000 0.000000
s off
g BG_tile
usemtl FGSG
f 1/1/1 2/2/2 4/3/3 3/4/4
usemtl MGFSG
f 5/5/5 6/6/6 8/7/7 7/8/8
usemtl BubblesSG
f 9/9/9 10/10/10 12/11/11 11/12/12
usemtl _BGSG
f 13/13/13 14/14/14 16/15/15 15/16/16
usemtl _MountainSG
f 17/17/17 18/18/18 20/19/19 19/20/20
usemtl FGFSG
f 21/21/21 22/22/22 24/23/23 23/24/24
s 1
usemtl MGSG
f 29/25/25 30/26/26 28/27/27 27/28/28
f 25/29/29 26/30/30 30/26/26 29/25/25
s off
usemtl lambert7SG
f 31/31/31 32/32/32 34/33/33 33/34/34
usemtl lambert8SG
f 35/35/35 37/38/36 38/37/37 36/36/38
usemtl FGSG
f 39/39/39 41/42/40 42/41/41 40/40/42
usemtl MGFSG
f 43/43/43 45/46/44 46/45/45 44/44/46
usemtl _MountainSG
f 47/47/47 49/50/48 50/49/49 48/48/50
usemtl FGFSG
f 51/51/51 53/54/52 54/53/53 52/52/54
s 2
usemtl MGSG
f 59/55/55 57/58/56 58/57/57 60/56/58
f 55/59/59 59/55/55 60/56/58 56/60/60
s off
usemtl lambert7SG
f 61/61/61 63/64/62 64/63/63 62/62/64
usemtl BubblesSG
f 65/65/65 66/66/66 68/67/67 67/68/68
usemtl _BGSG
f 69/69/69 71/72/70 72/71/71 70/70/72
usemtl lambert8SG
f 73/73/73 74/74/74 76/75/75 75/76/76
usemtl FGSG
f 77/77/77 78/78/78 80/79/79 79/80/80
usemtl MGFSG
f 81/81/81 82/82/82 84/83/83 83/84/84
usemtl BubblesSG
f 85/85/85 86/86/86 88/87/87 87/88/88
usemtl _BGSG
f 89/89/89 90/90/90 92/91/91 91/92/92
usemtl _MountainSG
f 93/93/93 94/94/94 96/95/95 95/96/96
usemtl FGFSG
f 97/97/97 98/98/98 100/99/99 99/100/100
s 3
usemtl MGSG
f 105/101/101 106/102/102 104/103/103 103/104/104
f 101/105/105 102/106/106 106/102/102 105/101/101
s off
usemtl lambert7SG
f 107/107/107 108/108/108 110/109/109 109/110/110
usemtl lambert8SG
f 111/111/111 113/112/112 114/113/113 112/114/114
usemtl FGSG
f 115/115/115 117/116/116 118/117/117 116/118/118
usemtl MGFSG
f 119/119/119 121/120/120 122/121/121 120/122/122
usemtl _MountainSG
f 123/123/123 125/124/124 126/125/125 124/126/126
usemtl FGFSG
f 127/127/127 129/128/128 130/129/129 128/130/130
s 4
usemtl MGSG
f 135/131/131 133/132/132 134/133/133 136/134/134
f 131/135/135 135/131/131 136/134/134 132/136/136
s off
usemtl lambert7SG
f 137/137/137 139/138/138 140/139/139 138/140/140
usemtl BubblesSG
f 141/141/141 142/142/142 144/143/143 143/144/144
usemtl _BGSG
f 145/145/145 147/146/146 148/147/147 146/148/148
usemtl lambert8SG
f 149/149/149 150/150/150 152/151/151 151/152/152
usemtl FGSG
f 153/153/153 154/154/154 156/155/155 155/156/156
usemtl MGFSG
f 157/157/157 158/158/158 160/159/159 159/160/160
usemtl BubblesSG
f 161/161/161 162/162/162 164/163/163 163/164/164
usemtl _BGSG
f 165/165/165 166/166/166 168/167/167 167/168/168
usemtl _MountainSG
f 169/169/169 170/170/170 172/171/171 171/172/172
usemtl FGFSG
f 173/173/173 174/174/174 176/175/175 175/176/176
s 5
usemtl MGSG
f 181/177/177 182/178/178 180/179/179 179/180/180
f 177/181/181 178/182/182 182/178/178 181/177/177
s off
usemtl lambert7SG
f 183/183/183 184/184/184 186/185/185 185/186/186
usemtl lambert8SG
f 187/187/187 189/188/188 190/189/189 188/190/190
usemtl FGSG
f 191/191/191 193/192/192 194/193/193 192/194/194
usemtl MGFSG
f 195/195/195 197/196/196 198/197/197 196/198/198
usemtl _MountainSG
f 199/199/199 201/200/200 202/201/201 200/202/202
usemtl FGFSG
f 203/203/203 205/204/204 206/205/205 204/206/206
s 6
usemtl MGSG
f 211/207/207 209/208/208 210/209/209 212/210/210
f 207/211/211 211/207/207 212/210/210 208/212/212
s off
usemtl lambert7SG
f 213/213/213 215/214/214 216/215/215 214/216/216
usemtl BubblesSG
f 217/217/217 218/218/218 220/219/219 219/220/220
usemtl _BGSG
f 221/221/221 223/222/222 224/223/223 222/224/224
usemtl lambert8SG
f 225/225/225 226/226/226 228/227/227 227/228/228
