# This file uses centimeters as units for non-parametric coordinates.

mtllib typemesh_found.mtl
g default
v -0.036941 0.199929 0.154634
v -0.036941 0.199929 0.214784
v -0.036941 -0.000000 0.214784
v -0.036941 -0.000000 0.182639
v -0.036941 0.089372 0.182639
v -0.036941 0.089372 0.165593
v -0.036941 0.118107 0.159261
v -0.036941 0.118107 0.182639
v -0.036941 0.168272 0.182639
v -0.036941 0.168272 0.164375
v 0.036941 0.199929 0.154634
v 0.036941 0.199929 0.214784
v 0.036941 -0.000000 0.214784
v 0.036941 -0.000000 0.182639
v 0.036941 0.089372 0.182639
v 0.036941 0.089372 0.165593
v 0.036941 0.118107 0.159261
v 0.036941 0.118107 0.182639
v 0.036941 0.168272 0.182639
v 0.036941 0.168272 0.164375
v -0.036941 0.199929 0.083283
v -0.036941 0.199929 0.135153
v -0.036941 0.174360 0.150738
v -0.036941 0.025569 0.150738
v -0.036941 -0.000000 0.136370
v -0.036941 -0.000000 0.082309
v -0.036941 0.025569 0.067698
v -0.036941 0.174360 0.067698
v -0.036941 0.167931 0.102556
v -0.036941 0.160419 0.099891
v -0.036941 0.039753 0.099891
v -0.036941 0.032242 0.102556
v -0.036941 0.032242 0.115883
v -0.036941 0.039753 0.119033
v -0.036941 0.160419 0.119033
v -0.036941 0.167931 0.115883
v 0.036941 0.199929 0.083283
v 0.036941 0.199929 0.135153
v 0.036941 0.174360 0.150738
v 0.036941 0.025569 0.150738
v 0.036941 -0.000000 0.136370
v 0.036941 -0.000000 0.082309
v 0.036941 0.025569 0.067698
v 0.036941 0.174360 0.067698
v 0.036941 0.167931 0.102556
v 0.036941 0.160419 0.099891
v 0.036941 0.039753 0.099891
v 0.036941 0.032242 0.102556
v 0.036941 0.032242 0.115883
v 0.036941 0.039753 0.119033
v 0.036941 0.160419 0.119033
v 0.036941 0.167931 0.115883
v -0.036941 0.199929 0.022891
v -0.036941 0.199929 0.055766
v -0.036941 0.025569 0.055766
v -0.036941 -0.000000 0.041398
v -0.036941 -0.000000 -0.011689
v -0.036941 0.025569 -0.026057
v -0.036941 0.199929 -0.026057
v -0.036941 0.199929 0.005114
v -0.036941 0.039450 0.005114
v -0.036941 0.031901 0.007793
v -0.036941 0.031901 0.020212
v -0.036941 0.039450 0.022891
v 0.036941 0.199929 0.022891
v 0.036941 0.199929 0.055766
v 0.036941 0.025569 0.055766
v 0.036941 -0.000000 0.041398
v 0.036941 -0.000000 -0.011689
v 0.036941 0.025569 -0.026057
v 0.036941 0.199929 -0.026057
v 0.036941 0.199929 0.005114
v 0.036941 0.039450 0.005114
v 0.036941 0.031901 0.007793
v 0.036941 0.031901 0.020212
v 0.036941 0.039450 0.022891
v -0.036941 0.199929 -0.068186
v -0.036941 0.199929 -0.038476
v -0.036941 -0.000000 -0.038476
v -0.036941 -0.000000 -0.067211
v -0.036941 0.099112 -0.067211
v -0.036941 0.099112 -0.068186
v -0.036941 -0.000000 -0.091807
v -0.036941 -0.000000 -0.119081
v -0.036941 0.199929 -0.119081
v -0.036941 0.199929 -0.089128
v -0.036941 0.118837 -0.089128
v -0.036941 0.118837 -0.087911
v 0.036941 0.199929 -0.068186
v 0.036941 0.199929 -0.038476
v 0.036941 -0.000000 -0.038476
v 0.036941 -0.000000 -0.067211
v 0.036941 0.099112 -0.067211
v 0.036941 0.099112 -0.068186
v 0.036941 -0.000000 -0.091807
v 0.036941 -0.000000 -0.119081
v 0.036941 0.199929 -0.119081
v 0.036941 0.199929 -0.089128
v 0.036941 0.118837 -0.089128
v 0.036941 0.118837 -0.087911
v -0.036941 0.199929 -0.199199
v -0.036941 0.199929 -0.131744
v -0.036941 -0.000000 -0.131744
v -0.036941 -0.000000 -0.200173
v -0.036941 0.025569 -0.214784
v -0.036941 0.174360 -0.214784
v -0.036941 0.167931 -0.179926
v -0.036941 0.160419 -0.182592
v -0.036941 0.039753 -0.182592
v -0.036941 0.032242 -0.179926
v -0.036941 0.032242 -0.163450
v -0.036941 0.167931 -0.163450
v 0.036941 0.199929 -0.199199
v 0.036941 0.199929 -0.131744
v 0.036941 -0.000000 -0.131744
v 0.036941 -0.000000 -0.200173
v 0.036941 0.025569 -0.214784
v 0.036941 0.174360 -0.214784
v 0.036941 0.167931 -0.179926
v 0.036941 0.160419 -0.182592
v 0.036941 0.039753 -0.182592
v 0.036941 0.032242 -0.179926
v 0.036941 0.032242 -0.163450
v 0.036941 0.167931 -0.163450
vt 0.259855 0.824698
vt 0.259855 0.760160
vt 0.283704 0.760160
vt 0.283704 0.824698
vt 0.435404 0.890991
vt 0.435404 0.919841
vt 0.411554 0.919841
vt 0.411554 0.890991
vt 0.404978 0.923862
vt 0.414254 0.923862
vt 0.414254 0.947712
vt 0.404978 0.947712
vt 0.378541 0.923862
vt 0.394735 0.923862
vt 0.394735 0.947712
vt 0.378541 0.947712
vt 0.359729 0.935669
vt 0.369948 0.935669
vt 0.369948 0.959519
vt 0.359729 0.959519
vt 0.306166 0.816444
vt 0.306166 0.768414
vt 0.330015 0.768414
vt 0.330015 0.816444
vt 0.306166 0.760160
vt 0.330015 0.760160
vt 0.306166 0.824698
vt 0.330015 0.824698
vt 0.355291 0.760160
vt 0.355291 0.768414
vt 0.331442 0.768414
vt 0.331442 0.760160
vt 0.355291 0.816444
vt 0.331442 0.816444
vt 0.355291 0.824698
vt 0.331442 0.824698
vt 0.259855 0.924494
vt 0.259855 0.922070
vt 0.283704 0.922070
vt 0.283704 0.924494
vt 0.259855 0.883118
vt 0.283704 0.883118
vt 0.259855 0.880693
vt 0.283704 0.880693
vt 0.309023 0.880693
vt 0.309023 0.883118
vt 0.285174 0.883118
vt 0.285174 0.880693
vt 0.309023 0.922070
vt 0.285174 0.922070
vt 0.309023 0.924494
vt 0.285174 0.924494
vt 0.384993 0.824698
vt 0.384993 0.768414
vt 0.408842 0.768414
vt 0.408842 0.824698
vt 0.384993 0.760160
vt 0.408842 0.760160
vt 0.434119 0.760160
vt 0.434119 0.768414
vt 0.410269 0.768414
vt 0.410269 0.760160
vt 0.434119 0.824698
vt 0.410269 0.824698
vt 0.298630 0.879816
vt 0.298630 0.828012
vt 0.322479 0.828012
vt 0.322479 0.879816
vt 0.298630 0.825575
vt 0.322479 0.825575
vt 0.297281 0.825575
vt 0.297281 0.828012
vt 0.273432 0.828012
vt 0.273432 0.825575
vt 0.297281 0.879816
vt 0.273432 0.879816
vt 0.454944 0.890114
vt 0.454944 0.825575
vt 0.478794 0.825575
vt 0.478794 0.890114
vt 0.384851 0.890991
vt 0.384851 0.922985
vt 0.361002 0.922985
vt 0.361002 0.890991
vt 0.386278 0.922985
vt 0.386278 0.890991
vt 0.410128 0.890991
vt 0.410128 0.922985
vt 0.453596 0.825575
vt 0.453596 0.890114
vt 0.429747 0.890114
vt 0.429747 0.825575
vt 0.436830 0.917168
vt 0.436830 0.890991
vt 0.460680 0.890991
vt 0.460680 0.917168
vt 0.478794 0.918046
vt 0.478794 0.944222
vt 0.454944 0.944222
vt 0.454944 0.918046
vt 0.377180 0.890114
vt 0.377180 0.825575
vt 0.401030 0.825575
vt 0.401030 0.890114
vt 0.375832 0.825575
vt 0.375832 0.833829
vt 0.351982 0.833829
vt 0.351982 0.825575
vt 0.375832 0.881860
vt 0.351982 0.881860
vt 0.375832 0.890114
vt 0.351982 0.890114
vt 0.310450 0.934792
vt 0.310450 0.932368
vt 0.334299 0.932368
vt 0.334299 0.934792
vt 0.310450 0.893416
vt 0.334299 0.893416
vt 0.310450 0.890991
vt 0.334299 0.890991
vt 0.359575 0.890991
vt 0.359575 0.934792
vt 0.335726 0.934792
vt 0.335726 0.890991
vt 0.453596 0.944567
vt 0.434179 0.944567
vt 0.434179 0.920718
vt 0.453596 0.920718
vt 0.422454 0.920718
vt 0.432831 0.920718
vt 0.432831 0.944567
vt 0.422454 0.944567
vt 0.415603 0.920718
vt 0.421106 0.920718
vt 0.421106 0.944567
vt 0.415603 0.944567
vt 0.403630 0.947712
vt 0.396083 0.947712
vt 0.396083 0.923862
vt 0.403630 0.923862
vt 0.371297 0.923862
vt 0.377193 0.923862
vt 0.377193 0.947712
vt 0.371297 0.947712
vt 0.358380 0.959519
vt 0.341637 0.959519
vt 0.341637 0.935669
vt 0.358380 0.935669
vt 0.322837 0.935669
vt 0.340288 0.935669
vt 0.340288 0.959519
vt 0.322837 0.959519
vt 0.321488 0.959519
vt 0.317186 0.959519
vt 0.317186 0.935669
vt 0.321488 0.935669
vt 0.311536 0.935669
vt 0.315838 0.935669
vt 0.315838 0.959519
vt 0.311536 0.959519
vt 0.310187 0.959519
vt 0.299575 0.959519
vt 0.299575 0.935669
vt 0.310187 0.935669
vt 0.281089 0.925372
vt 0.298226 0.925372
vt 0.298226 0.949221
vt 0.281089 0.949221
vt 0.279741 0.949221
vt 0.269679 0.949221
vt 0.269679 0.925372
vt 0.279741 0.925372
vt 0.268330 0.949221
vt 0.264321 0.949221
vt 0.264321 0.925372
vt 0.268330 0.925372
vt 0.269445 0.973948
vt 0.259855 0.973948
vt 0.259855 0.950098
vt 0.269445 0.950098
vt 0.271036 0.950098
vt 0.280312 0.950098
vt 0.280312 0.973948
vt 0.271036 0.973948
vt 0.281746 0.950098
vt 0.282061 0.950098
vt 0.282061 0.973948
vt 0.281746 0.973948
vt 0.283460 0.950098
vt 0.292264 0.950098
vt 0.292264 0.973948
vt 0.283460 0.973948
vt 0.303411 0.984246
vt 0.293742 0.984246
vt 0.293742 0.960396
vt 0.303411 0.960396
vt 0.305274 0.984246
vt 0.304881 0.984246
vt 0.304881 0.960396
vt 0.305274 0.960396
vt 0.328797 0.984246
vt 0.307023 0.984246
vt 0.307023 0.960396
vt 0.328797 0.960396
vt 0.330157 0.960396
vt 0.352246 0.960396
vt 0.352246 0.984246
vt 0.330157 0.984246
vt 0.359038 0.984246
vt 0.353719 0.984246
vt 0.353719 0.960396
vt 0.359038 0.960396
vt 0.360574 0.960396
vt 0.365892 0.960396
vt 0.365892 0.984246
vt 0.360574 0.984246
vt 0.304590 0.824698
vt 0.285174 0.824698
vt 0.285174 0.760160
vt 0.295550 0.760160
vt 0.295550 0.789009
vt 0.301053 0.789009
vt 0.303097 0.798285
vt 0.295550 0.798285
vt 0.295550 0.814479
vt 0.301446 0.814479
vt 0.378493 0.824698
vt 0.361749 0.824698
vt 0.356718 0.816444
vt 0.356718 0.768414
vt 0.361356 0.760160
vt 0.378807 0.760160
vt 0.383524 0.768414
vt 0.383524 0.816444
vt 0.372271 0.814369
vt 0.373132 0.811944
vt 0.373132 0.772992
vt 0.372271 0.770568
vt 0.367970 0.770568
vt 0.366953 0.772992
vt 0.366953 0.811944
vt 0.367970 0.814369
vt 0.446158 0.824698
vt 0.435545 0.824698
vt 0.435545 0.768414
vt 0.440183 0.760160
vt 0.457320 0.760160
vt 0.461958 0.768414
vt 0.461958 0.824698
vt 0.451896 0.824698
vt 0.451896 0.772894
vt 0.451031 0.770457
vt 0.447022 0.770457
vt 0.446158 0.772894
vt 0.411969 0.890114
vt 0.402378 0.890114
vt 0.402378 0.825575
vt 0.411654 0.825575
vt 0.411654 0.857569
vt 0.411969 0.857569
vt 0.419594 0.825575
vt 0.428398 0.825575
vt 0.428398 0.890114
vt 0.418729 0.890114
vt 0.418729 0.863937
vt 0.418336 0.863937
vt 0.345603 0.890114
vt 0.323828 0.890114
vt 0.323828 0.825575
vt 0.345917 0.825575
vt 0.350634 0.833829
vt 0.350634 0.881860
vt 0.339381 0.879784
vt 0.340242 0.877360
vt 0.340242 0.838408
vt 0.339381 0.835983
vt 0.334062 0.835983
vt 0.334062 0.879784
vn 0.000000 1.000000 0.000000
vn 0.000000 1.000000 0.000000
vn 0.000000 1.000000 0.000000
vn 0.000000 1.000000 0.000000
vn 0.000000 -0.000000 1.000000
vn 0.000000 -0.000000 1.000000
vn 0.000000 -0.000000 1.000000
vn 0.000000 -0.000000 1.000000
vn 0.000000 -1.000000 0.000000
vn 0.000000 -1.000000 0.000000
vn 0.000000 -1.000000 0.000000
vn 0.000000 -1.000000 0.000000
vn 0.000000 0.000000 -1.000000
vn 0.000000 0.000000 -1.000000
vn 0.000000 0.000000 -1.000000
vn 0.000000 0.000000 -1.000000
vn 0.000000 -1.000000 0.000000
vn 0.000000 -1.000000 0.000000
vn 0.000000 -1.000000 0.000000
vn 0.000000 -1.000000 0.000000
vn 0.000000 -0.215155 -0.976580
vn 0.000000 -0.215161 -0.976579
vn 0.000000 -0.215172 -0.976576
vn 0.000000 -0.215178 -0.976575
vn 0.000000 1.000000 0.000000
vn 0.000000 1.000000 0.000000
vn 0.000000 1.000000 0.000000
vn 0.000000 1.000000 0.000000
vn 0.000000 0.000000 -1.000000
vn 0.000000 0.000000 -1.000000
vn 0.000000 0.000000 -1.000000
vn 0.000000 0.000000 -1.000000
vn 0.000000 -1.000000 0.000000
vn 0.000000 -1.000000 0.000000
vn 0.000000 -1.000000 0.000000
vn 0.000000 -1.000000 0.000000
vn 0.000000 -0.294073 -0.955783
vn 0.000000 -0.294078 -0.955781
vn 0.000000 -0.294087 -0.955779
vn 0.000000 -0.294092 -0.955777
vn 1.000000 0.000000 0.000000
vn 1.000000 0.000000 0.000000
vn 1.000000 0.000000 0.000000
vn 1.000000 0.000000 0.000000
vn 1.000000 0.000000 0.000000
vn 1.000000 0.000000 0.000000
vn 1.000000 0.000000 0.000000
vn 1.000000 0.000000 0.000000
vn 1.000000 0.000000 -0.000000
vn 1.000000 0.000000 0.000000
vn 0.000000 1.000000 0.000000
vn 0.000000 1.000000 0.000000
vn 0.000000 1.000000 0.000000
vn 0.000000 1.000000 0.000000
vn 0.000000 0.520459 0.853887
vn 0.000000 0.089030 0.996029
vn 0.000000 0.520472 0.853879
vn 0.000000 0.089034 0.996029
vn 0.000000 -0.082123 0.996622
vn 0.000000 -0.082126 0.996622
vn 0.000000 -0.489866 0.871798
vn 0.000000 -0.489880 0.871790
vn 0.000000 -1.000000 0.000000
vn 0.000000 -1.000000 0.000000
vn 0.000000 -1.000000 0.000000
vn 0.000000 -1.000000 0.000000
vn 0.000000 -0.496130 -0.868248
vn 0.000000 -0.083505 -0.996507
vn 0.000000 -0.496144 -0.868240
vn 0.000000 -0.083508 -0.996507
vn 0.000000 0.089030 -0.996029
vn 0.000000 0.089030 -0.996029
vn 0.000000 0.520459 -0.853887
vn 0.000000 0.520459 -0.853887
vn 0.000000 -0.334319 0.942460
vn 0.000000 -0.020784 0.999784
vn 0.000000 -0.334393 0.942434
vn 0.000000 -0.020789 0.999784
vn 0.000000 0.020789 0.999784
vn 0.000000 0.020784 0.999784
vn 0.000000 0.334395 0.942433
vn 0.000000 0.334322 0.942459
vn 0.000000 1.000000 0.000000
vn 0.000000 1.000000 0.000000
vn 0.000000 1.000000 0.000000
vn 0.000000 1.000000 0.000000
vn 0.000000 0.386723 -0.922196
vn 0.000000 0.024567 -0.999698
vn 0.000000 0.386723 -0.922196
vn 0.000000 0.024567 -0.999698
vn 0.000000 -0.024567 -0.999698
vn 0.000000 -0.024567 -0.999698
vn 0.000000 -0.386720 -0.922197
vn 0.000000 -0.386720 -0.922197
vn 0.000000 -1.000000 0.000000
vn 0.000000 -1.000000 0.000000
vn 0.000000 -1.000000 0.000000
vn 0.000000 -1.000000 0.000000
vn 1.000000 0.000000 0.000000
vn 1.000000 0.000000 0.000000
vn 1.000000 0.000000 0.000000
vn 1.000000 0.000000 -0.000000
vn 1.000000 0.000000 0.000000
vn 1.000000 0.000000 0.000000
vn 1.000000 0.000000 0.000000
vn 1.000000 0.000000 0.000000
vn 1.000000 0.000000 0.000000
vn 1.000000 0.000000 0.000000
vn 1.000000 0.000000 0.000000
vn 1.000000 0.000000 0.000000
vn 1.000000 0.000000 0.000000
vn 1.000000 0.000000 -0.000000
vn 1.000000 0.000000 -0.000000
vn 1.000000 0.000000 0.000000
vn 0.000000 1.000000 0.000000
vn 0.000000 1.000000 0.000000
vn 0.000000 1.000000 0.000000
vn 0.000000 1.000000 0.000000
vn 0.000000 -0.000000 1.000000
vn 0.000000 -0.071678 0.997428
vn 0.000000 -0.000000 1.000000
vn 0.000000 -0.071680 0.997428
vn 0.000000 -0.489866 0.871798
vn 0.000000 -0.489880 0.871790
vn 0.000000 -1.000000 0.000000
vn 0.000000 -1.000000 0.000000
vn 0.000000 -1.000000 0.000000
vn 0.000000 -1.000000 0.000000
vn 0.000000 -0.489880 -0.871790
vn 0.000000 -0.071680 -0.997428
vn 0.000000 -0.489866 -0.871798
vn 0.000000 -0.071678 -0.997428
vn 0.000000 0.000000 -1.000000
vn 0.000000 0.000000 -1.000000
vn 0.000000 1.000000 0.000000
vn 0.000000 1.000000 0.000000
vn 0.000000 1.000000 0.000000
vn 0.000000 1.000000 0.000000
vn 0.000000 -0.000000 1.000000
vn 0.000000 0.015940 0.999873
vn 0.000000 -0.000000 1.000000
vn 0.000000 0.015943 0.999873
vn 0.000000 0.334407 0.942429
vn 0.000000 0.334480 0.942403
vn 0.000000 1.000000 0.000000
vn 0.000000 1.000000 0.000000
vn 0.000000 1.000000 0.000000
vn 0.000000 1.000000 0.000000
vn 0.000000 0.334402 -0.942431
vn 0.000000 0.015939 -0.999873
vn 0.000000 0.334329 -0.942456
vn 0.000000 0.015935 -0.999873
vn 0.000000 0.000000 -1.000000
vn 0.000000 0.000000 -1.000000
vn 1.000000 0.000000 0.000000
vn 1.000000 0.000000 0.000000
vn 1.000000 0.000000 -0.000000
vn 1.000000 0.000000 -0.000000
vn 1.000000 0.000000 -0.000000
vn 1.000000 0.000000 0.000000
vn 1.000000 0.000000 0.000000
vn 1.000000 0.000000 0.000000
vn 1.000000 0.000000 0.000000
vn 1.000000 0.000000 0.000000
vn 1.000000 0.000000 0.000000
vn 1.000000 0.000000 0.000000
vn 0.000000 1.000000 0.000000
vn 0.000000 1.000000 0.000000
vn 0.000000 1.000000 0.000000
vn 0.000000 1.000000 0.000000
vn 0.000000 -0.000000 1.000000
vn 0.000000 -0.000000 1.000000
vn 0.000000 -0.000000 1.000000
vn 0.000000 -0.000000 1.000000
vn 0.000000 -1.000000 0.000000
vn 0.000000 -1.000000 0.000000
vn 0.000000 -1.000000 0.000000
vn 0.000000 -1.000000 0.000000
vn 0.000000 0.000000 -1.000000
vn 0.000000 0.000000 -1.000000
vn 0.000000 0.000000 -1.000000
vn 0.000000 0.000000 -1.000000
vn 0.000000 -1.000000 0.000000
vn 0.000000 -1.000000 0.000000
vn 0.000000 -1.000000 0.000000
vn 0.000000 -1.000000 0.000000
vn 0.000000 -0.231832 0.972756
vn 0.000000 -0.231836 0.972755
vn 0.000000 -0.231835 0.972755
vn 0.000000 -0.231839 0.972754
vn 0.000000 -1.000000 0.000000
vn 0.000000 -1.000000 0.000000
vn 0.000000 -1.000000 0.000000
vn 0.000000 -1.000000 0.000000
vn 0.000000 0.000000 -1.000000
vn 0.000000 0.000000 -1.000000
vn 0.000000 0.000000 -1.000000
vn 0.000000 0.000000 -1.000000
vn 0.000000 1.000000 0.000000
vn 0.000000 1.000000 0.000000
vn 0.000000 1.000000 0.000000
vn 0.000000 1.000000 0.000000
vn 0.000000 -0.000000 1.000000
vn 0.000000 -0.000000 1.000000
vn 0.000000 -0.000000 1.000000
vn 0.000000 -0.000000 1.000000
vn 0.000000 1.000000 0.000000
vn 0.000000 1.000000 0.000000
vn 0.000000 1.000000 0.000000
vn 0.000000 1.000000 0.000000
vn 0.000000 0.236348 -0.971669
vn 0.000000 0.236352 -0.971668
vn 0.000000 0.236351 -0.971668
vn 0.000000 0.236356 -0.971667
vn 1.000000 0.000000 0.000000
vn 1.000000 0.000000 0.000000
vn 1.000000 0.000000 0.000000
vn 1.000000 0.000000 0.000000
vn 1.000000 0.000000 0.000000
vn 1.000000 0.000000 -0.000000
vn 1.000000 0.000000 -0.000000
vn 1.000000 0.000000 0.000000
vn 1.000000 0.000000 0.000000
vn 1.000000 0.000000 -0.000000
vn 1.000000 0.000000 -0.000000
vn 1.000000 0.000000 -0.000001
vn 0.000000 1.000000 0.000000
vn 0.000000 1.000000 0.000000
vn 0.000000 1.000000 0.000000
vn 0.000000 1.000000 0.000000
vn 0.000000 -0.000000 1.000000
vn 0.000000 -0.000000 1.000000
vn 0.000000 -0.000000 1.000000
vn 0.000000 -0.000000 1.000000
vn 0.000000 -1.000000 0.000000
vn 0.000000 -1.000000 0.000000
vn 0.000000 -1.000000 0.000000
vn 0.000000 -1.000000 0.000000
vn 0.000000 -0.496148 -0.868238
vn 0.000000 -0.083507 -0.996507
vn 0.000000 -0.496135 -0.868246
vn 0.000000 -0.083504 -0.996507
vn 0.000000 0.089034 -0.996029
vn 0.000000 0.089030 -0.996029
vn 0.000000 0.520472 -0.853879
vn 0.000000 0.520459 -0.853887
vn 0.000000 -0.334398 0.942432
vn 0.000000 -0.020789 0.999784
vn 0.000000 -0.334471 0.942406
vn 0.000000 -0.020794 0.999784
vn 0.000000 0.020794 0.999784
vn 0.000000 0.020789 0.999784
vn 0.000000 0.334473 0.942405
vn 0.000000 0.334400 0.942431
vn 0.000000 1.000000 0.000000
vn 0.000000 1.000000 0.000000
vn 0.000000 1.000000 0.000000
vn 0.000000 1.000000 0.000000
vn 0.000000 0.000000 -1.000000
vn 0.000000 0.000000 -1.000000
vn 0.000000 0.000000 -1.000000
vn 0.000000 0.000000 -1.000000
vn 0.000000 -1.000000 0.000000
vn 0.000000 -1.000000 0.000000
vn 0.000000 -1.000000 0.000000
vn 0.000000 -1.000000 0.000000
vn 1.000000 0.000000 -0.000000
vn 1.000000 0.000000 -0.000000
vn 1.000000 0.000000 0.000000
vn 1.000000 0.000000 0.000000
vn 1.000000 0.000000 0.000000
vn 1.000000 0.000000 0.000000
vn 1.000000 0.000000 0.000000
vn 1.000000 0.000000 0.000000
vn 1.000000 0.000000 -0.000000
vn 1.000000 0.000000 -0.000000
vn 1.000000 0.000000 -0.000000
vn 1.000000 0.000000 0.000000
s 1
g typeMesh_found group2
usemtl lambert8SG
f 1/125/1 2/126/2 11/128/3
f 11/128/3 2/126/2 12/127/4
s 2
f 2/1/5 3/2/6 12/4/7
f 12/4/7 3/2/6 13/3/8
s 3
f 3/129/9 4/130/10 13/132/11
f 13/132/11 4/130/10 14/131/12
s 4
f 4/5/13 5/6/14 14/8/15
f 14/8/15 5/6/14 15/7/16
s 5
f 5/133/17 6/134/18 15/136/19
f 15/136/19 6/134/18 16/135/20
s 6
f 6/9/21 7/10/22 16/12/23
f 16/12/23 7/10/22 17/11/24
s 7
f 7/137/25 8/138/26 17/140/27
f 17/140/27 8/138/26 18/139/28
s 8
f 8/13/29 9/14/30 18/16/31
f 18/16/31 9/14/30 19/15/32
s 9
f 9/141/33 10/142/34 19/144/35
f 19/144/35 10/142/34 20/143/36
s 10
f 10/17/37 1/18/38 20/20/39
f 20/20/39 1/18/38 11/19/40
s 11
f 11/217/41 12/218/42 20/226/43
f 20/226/43 12/218/42 19/225/44
f 12/218/42 13/219/45 19/225/44
f 19/225/44 13/219/45 18/224/46
f 17/223/47 18/224/46 16/222/48
f 16/222/48 18/224/46 15/221/49
f 18/224/46 13/219/45 15/221/49
f 13/219/45 14/220/50 15/221/49
s 13
f 21/145/51 22/146/52 37/148/53
f 37/148/53 22/146/52 38/147/54
s 14
f 22/27/55 23/21/56 38/28/57
f 38/28/57 23/21/56 39/24/58
f 23/21/56 24/22/59 39/24/58
f 39/24/58 24/22/59 40/23/60
f 24/22/59 25/25/61 40/23/60
f 40/23/60 25/25/61 41/26/62
s 15
f 25/149/63 26/150/64 41/152/65
f 41/152/65 26/150/64 42/151/66
s 16
f 26/29/67 27/30/68 42/32/69
f 42/32/69 27/30/68 43/31/70
f 27/30/68 28/33/71 43/31/70
f 43/31/70 28/33/71 44/34/72
f 28/33/71 21/35/73 44/34/72
f 44/34/72 21/35/73 37/36/74
s 17
f 29/37/75 30/38/76 45/40/77
f 45/40/77 30/38/76 46/39/78
f 30/38/76 31/41/79 46/39/78
f 46/39/78 31/41/79 47/42/80
f 31/41/79 32/43/81 47/42/80
f 47/42/80 32/43/81 48/44/82
s 18
f 32/153/83 33/154/84 48/156/85
f 48/156/85 33/154/84 49/155/86
s 19
f 33/45/87 34/46/88 49/48/89
f 49/48/89 34/46/88 50/47/90
f 34/46/88 35/49/91 50/47/90
f 50/47/90 35/49/91 51/50/92
f 35/49/91 36/51/93 51/50/92
f 51/50/92 36/51/93 52/52/94
s 20
f 36/157/95 29/158/96 52/160/97
f 52/160/97 29/158/96 45/159/98
s 21
f 41/231/99 42/232/100 40/230/101
f 42/232/100 43/233/102 40/230/101
f 40/230/101 43/233/102 49/239/103
f 49/239/103 43/233/102 48/238/104
f 49/239/103 50/240/105 40/230/101
f 40/230/101 50/240/105 39/229/106
f 50/240/105 51/241/107 39/229/106
f 39/229/106 51/241/107 38/228/108
f 51/241/107 52/242/109 38/228/108
f 38/228/108 52/242/109 37/227/110
f 52/242/109 45/235/111 37/227/110
f 37/227/110 45/235/111 44/234/112
f 45/235/111 46/236/113 44/234/112
f 44/234/112 46/236/113 43/233/102
f 48/238/104 43/233/102 47/237/114
f 46/236/113 47/237/114 43/233/102
s 22
f 53/161/115 54/162/116 65/164/117
f 65/164/117 54/162/116 66/163/118
s 23
f 54/53/119 55/54/120 66/56/121
f 66/56/121 55/54/120 67/55/122
f 55/54/120 56/57/123 67/55/122
f 67/55/122 56/57/123 68/58/124
s 24
f 56/165/125 57/166/126 68/168/127
f 68/168/127 57/166/126 69/167/128
s 25
f 57/59/129 58/60/130 69/62/131
f 69/62/131 58/60/130 70/61/132
f 58/60/130 59/63/133 70/61/132
f 70/61/132 59/63/133 71/64/134
s 26
f 59/169/135 60/170/136 71/172/137
f 71/172/137 60/170/136 72/171/138
s 27
f 60/65/139 61/66/140 72/68/141
f 72/68/141 61/66/140 73/67/142
f 61/66/140 62/69/143 73/67/142
f 73/67/142 62/69/143 74/70/144
s 28
f 62/173/145 63/174/146 74/176/147
f 74/176/147 63/174/146 75/175/148
s 29
f 63/71/149 64/72/150 75/74/151
f 75/74/151 64/72/150 76/73/152
f 64/72/150 53/75/153 76/73/152
f 76/73/152 53/75/153 65/76/154
s 30
f 65/243/155 66/244/156 76/254/157
f 66/244/156 67/245/158 76/254/157
f 67/245/158 68/246/159 76/254/157
f 76/254/157 68/246/159 75/253/160
f 68/246/159 69/247/161 75/253/160
f 75/253/160 69/247/161 74/252/162
f 69/247/161 70/248/163 74/252/162
f 74/252/162 70/248/163 73/251/164
f 70/248/163 71/249/165 73/251/164
f 71/249/165 72/250/166 73/251/164
s 31
f 77/177/167 78/178/168 89/180/169
f 89/180/169 78/178/168 90/179/170
s 32
f 78/77/171 79/78/172 90/80/173
f 90/80/173 79/78/172 91/79/174
s 33
f 79/181/175 80/182/176 91/184/177
f 91/184/177 80/182/176 92/183/178
s 34
f 80/81/179 81/82/180 92/84/181
f 92/84/181 81/82/180 93/83/182
s 35
f 81/185/183 82/186/184 93/188/185
f 93/188/185 82/186/184 94/187/186
s 36
f 82/85/187 83/86/188 94/88/189
f 94/88/189 83/86/188 95/87/190
s 37
f 83/189/191 84/190/192 95/192/193
f 95/192/193 84/190/192 96/191/194
s 38
f 84/89/195 85/90/196 96/92/197
f 96/92/197 85/90/196 97/91/198
s 39
f 85/193/199 86/194/200 97/196/201
f 97/196/201 86/194/200 98/195/202
s 40
f 86/93/203 87/94/204 98/96/205
f 98/96/205 87/94/204 99/95/206
s 41
f 87/197/207 88/198/208 99/200/209
f 99/200/209 88/198/208 100/199/210
s 42
f 88/97/211 77/98/212 100/100/213
f 100/100/213 77/98/212 89/99/214
s 43
f 90/256/215 91/257/216 89/255/217
f 92/258/218 93/259/219 91/257/216
f 91/257/216 93/259/219 89/255/217
f 89/255/217 93/259/219 100/266/220
f 93/259/219 94/260/221 100/266/220
f 96/262/222 97/263/223 95/261/224
f 97/263/223 98/264/225 95/261/224
f 98/264/225 99/265/226 95/261/224
f 99/265/226 100/266/220 95/261/224
f 94/260/221 95/261/224 100/266/220
s 45
f 101/201/227 102/202/228 113/204/229
f 113/204/229 102/202/228 114/203/230
s 46
f 102/101/231 103/102/232 114/104/233
f 114/104/233 103/102/232 115/103/234
s 47
f 103/205/235 104/206/236 115/208/237
f 115/208/237 104/206/236 116/207/238
s 48
f 104/105/239 105/106/240 116/108/241
f 116/108/241 105/106/240 117/107/242
f 105/106/240 106/109/243 117/107/242
f 117/107/242 106/109/243 118/110/244
f 106/109/243 101/111/245 118/110/244
f 118/110/244 101/111/245 113/112/246
s 49
f 107/113/247 108/114/248 119/116/249
f 119/116/249 108/114/248 120/115/250
f 108/114/248 109/117/251 120/115/250
f 120/115/250 109/117/251 121/118/252
f 109/117/251 110/119/253 121/118/252
f 121/118/252 110/119/253 122/120/254
s 50
f 110/209/255 111/210/256 122/212/257
f 122/212/257 111/210/256 123/211/258
s 51
f 111/121/259 112/122/260 123/124/261
f 123/124/261 112/122/260 124/123/262
s 52
f 112/213/263 107/214/264 124/216/265
f 124/216/265 107/214/264 119/215/266
s 53
f 114/268/267 124/278/268 113/267/269
f 124/278/268 119/273/270 113/267/269
f 114/268/267 115/269/271 124/278/268
f 124/278/268 115/269/271 123/277/272
f 115/269/271 116/270/273 123/277/272
f 123/277/272 116/270/273 122/276/274
f 116/270/273 117/271/275 122/276/274
f 113/267/269 119/273/270 118/272/276
f 119/273/270 120/274/277 118/272/276
f 118/272/276 120/274/277 117/271/275
f 122/276/274 117/271/275 121/275/278
f 120/274/277 121/275/278 117/271/275
