# This file uses centimeters as units for non-parametric coordinates.

mtllib lava.mtl
g default
v -0.006521 -0.564257 -0.027405
v -0.006521 -0.509603 -0.027405
v -0.006521 -0.454950 -0.027405
v -0.006521 -0.400296 -0.027405
v -0.006521 -0.564257 0.027249
v -0.006521 -0.509603 0.027249
v -0.006521 -0.454950 0.027249
v -0.006521 -0.400296 0.027249
v -0.006521 -0.400296 -0.048173
v -0.006521 -0.376794 -0.027405
v -0.006521 -0.564257 -0.055652
v -0.006521 -0.509603 -0.055352
v -0.006521 -0.454950 -0.055052
v -0.006521 -0.377321 0.027249
vt 0.100000 0.900000
vt 0.000000 0.900000
vt 0.200000 0.900000
vt 0.300000 0.862000
vt 0.300000 0.900000
vt 0.343002 0.900000
vt 0.100000 1.000000
vt 0.000000 1.000000
vt 0.200000 1.000000
vt 0.300000 1.000000
vt 0.000000 0.848315
vt 0.100000 0.848865
vt 0.200000 0.849414
vt 0.342037 1.000000
vn 1.000000 0.000000 0.000000
vn 1.000000 0.000000 0.000000
vn 1.000000 0.000000 0.000000
vn 1.000000 0.000000 0.000000
vn 1.000000 0.000000 0.000000
vn 1.000000 0.000000 0.000000
vn 1.000000 0.000000 0.000000
vn 1.000000 0.000000 0.000000
vn 1.000000 0.000000 0.000000
vn 1.000000 0.000000 0.000000
vn 1.000000 0.000000 0.000000
vn 1.000000 0.000000 0.000000
vn 1.000000 0.000000 0.000000
vn 1.000000 0.000000 0.000000
s 1
g lava
usemtl lambert8SG
f 11/11/1 12/12/2 2/1/3 1/2/4
f 12/12/2 13/13/5 3/3/6 2/1/3
f 13/13/5 9/4/7 4/5/8 3/3/6
f 9/4/7 10/6/9 4/5/8
f 1/2/4 2/1/3 6/7/10 5/8/11
f 2/1/3 3/3/6 7/9/12 6/7/10
f 3/3/6 4/5/8 8/10/13 7/9/12
f 4/5/8 10/6/9 14/14/14 8/10/13
